  0
SECTION
  2
HEADER
  9
$ACADVER
  1
AC2.10
  9
$INSUNITS
 70
     1
  0
ENDSEC
  0
SECTION
  2
TABLES
  0
TABLE
  2
LAYER
 70
     8
  0
LAYER
  2
0
 62
     7
 70
0
  6
CONTINUOUS
  0
LAYER
  2
1
 62
     1
 70
0
  6
CONTINUOUS
  0
LAYER
  2
2
 62
     2
 70
0
  6
CONTINUOUS
  0
LAYER
  2
3
 62
     3
 70
0
  6
CONTINUOUS
  0
LAYER
  2
4
 62
     4
 70
0
  6
CONTINUOUS
  0
LAYER
  2
5
 62
     5
 70
0
  6
CONTINUOUS
  0
LAYER
  2
6
 62
     6
 70
0
  6
CONTINUOUS
  0
LAYER
  2
7
 62
     7
 70
0
  6
CONTINUOUS
  0
ENDTAB
  0
TABLE
  2
STYLE
 70
     1
  0
STYLE
 70
     0
  2
STANDARD
  3
TXT
 40
0.00
 41
1.00
 42
1.00
 50
0.00
 71
     0
  0
ENDTAB
  0
ENDSEC
  0
SECTION
  2
BLOCKS
  0
BLOCK
  8
0
  2
EPAD
 70
0
 10
0.0
 20
0.0
  0
POLYLINE
  8
0
 66
1
 70
1
 40
0.5
 41
0.5
  0
VERTEX
  8
0
 10
-0.25
 20
0.0
 42
1.0
  0
VERTEX
  8
0
 10
0.25
 20
0.0
 42
1.0
  0
SEQEND
  8
0
  0
ENDBLK
  8
0
  0
BLOCK
  8
0
  2
RPAD
 70
0
 10
0.0
 20
0.0
  0
TRACE
  8
0
 10
-0.5
 20
-0.5
 11
-0.5
 21
0.5
 12
0.5
 22
-0.5
 13
0.5
 23
0.5
  0
ENDBLK
  8
0
  0
ENDSEC
0
SECTION
2
ENTITIES
0
POLYLINE
8
0
66
1
40
0.016000
41
0.016000
0
VERTEX
8
0
10
-3.900000
20
1.200000
0
VERTEX
8
0
10
-3.900000
20
1.100000
0
SEQEND
8
0
0
POLYLINE
8
0
66
1
40
0.016000
41
0.016000
0
VERTEX
8
0
10
-4.600000
20
1.300000
0
VERTEX
8
0
10
-4.600000
20
1.100000
0
VERTEX
8
0
10
-3.900000
20
1.100000
0
SEQEND
8
0
0
POLYLINE
8
0
66
1
40
0.016000
41
0.016000
0
VERTEX
8
0
10
-3.500000
20
1.200000
0
VERTEX
8
0
10
-3.500000
20
1.100000
0
SEQEND
8
0
0
POLYLINE
8
0
66
1
40
0.016000
41
0.016000
0
VERTEX
8
0
10
-3.900000
20
1.100000
0
VERTEX
8
0
10
-3.500000
20
1.100000
0
SEQEND
8
0
0
POLYLINE
8
0
66
1
40
0.016000
41
0.016000
0
VERTEX
8
0
10
-4.550000
20
1.900000
0
VERTEX
8
0
10
-4.600000
20
1.900000
0
VERTEX
8
0
10
-4.600000
20
2.200000
0
SEQEND
8
0
0
POLYLINE
8
0
66
1
40
0.016000
41
0.016000
0
VERTEX
8
0
10
-4.550000
20
2.200000
0
VERTEX
8
0
10
-4.600000
20
2.200000
0
VERTEX
8
0
10
-4.600000
20
2.500000
0
SEQEND
8
0
0
POLYLINE
8
0
66
1
40
0.016000
41
0.016000
0
VERTEX
8
0
10
-4.550000
20
2.500000
0
VERTEX
8
0
10
-4.600000
20
2.500000
0
VERTEX
8
0
10
-4.600000
20
2.800000
0
SEQEND
8
0
0
POLYLINE
8
0
66
1
40
0.016000
41
0.016000
0
VERTEX
8
0
10
-4.550000
20
2.800000
0
VERTEX
8
0
10
-4.600000
20
2.800000
0
SEQEND
8
0
0
POLYLINE
8
0
66
1
40
0.016000
41
0.016000
0
VERTEX
8
0
10
-3.100000
20
1.200000
0
VERTEX
8
0
10
-3.100000
20
1.100000
0
SEQEND
8
0
0
POLYLINE
8
0
66
1
40
0.016000
41
0.016000
0
VERTEX
8
0
10
-3.500000
20
1.100000
0
VERTEX
8
0
10
-3.100000
20
1.100000
0
SEQEND
8
0
0
POLYLINE
8
0
66
1
40
0.016000
41
0.016000
0
VERTEX
8
0
10
1.400000
20
1.300000
0
VERTEX
8
0
10
1.400000
20
1.300000
0
SEQEND
8
0
0
POLYLINE
8
0
66
1
40
0.016000
41
0.016000
0
VERTEX
8
0
10
2.200000
20
1.300000
0
VERTEX
8
0
10
2.200000
20
1.300000
0
SEQEND
8
0
0
POLYLINE
8
0
66
1
40
0.016000
41
0.016000
0
VERTEX
8
0
10
2.900000
20
1.300000
0
VERTEX
8
0
10
2.900000
20
1.300000
0
SEQEND
8
0
0
POLYLINE
8
0
66
1
40
0.016000
41
0.016000
0
VERTEX
8
0
10
-3.100000
20
1.100000
0
VERTEX
8
0
10
-3.000000
20
1.100000
0
SEQEND
8
0
0
POLYLINE
8
0
66
1
40
0.016000
41
0.016000
0
VERTEX
8
0
10
-2.700000
20
1.200000
0
VERTEX
8
0
10
-2.700000
20
1.100000
0
VERTEX
8
0
10
-3.000000
20
1.100000
0
SEQEND
8
0
0
POLYLINE
8
0
66
1
40
0.016000
41
0.016000
0
VERTEX
8
0
10
1.400000
20
0.800000
0
VERTEX
8
0
10
1.400000
20
0.700000
0
SEQEND
8
0
0
POLYLINE
8
0
66
1
40
0.016000
41
0.016000
0
VERTEX
8
0
10
2.200000
20
0.800000
0
VERTEX
8
0
10
2.200000
20
0.700000
0
SEQEND
8
0
0
POLYLINE
8
0
66
1
40
0.016000
41
0.016000
0
VERTEX
8
0
10
1.400000
20
0.700000
0
VERTEX
8
0
10
2.200000
20
0.700000
0
SEQEND
8
0
0
POLYLINE
8
0
66
1
40
0.016000
41
0.016000
0
VERTEX
8
0
10
4.300000
20
1.300000
0
VERTEX
8
0
10
4.300000
20
1.200000
0
SEQEND
8
0
0
POLYLINE
8
0
66
1
40
0.016000
41
0.016000
0
VERTEX
8
0
10
-3.000000
20
1.100000
0
VERTEX
8
0
10
-3.000000
20
-2.500000
0
VERTEX
8
0
10
1.200000
20
-2.500000
0
SEQEND
8
0
0
POLYLINE
8
0
66
1
40
0.016000
41
0.016000
0
VERTEX
8
0
10
1.400000
20
0.700000
0
VERTEX
8
0
10
1.400000
20
-2.500000
0
VERTEX
8
0
10
1.200000
20
-2.500000
0
SEQEND
8
0
0
POLYLINE
8
0
66
1
40
0.016000
41
0.016000
0
VERTEX
8
0
10
3.800000
20
-1.400000
0
VERTEX
8
0
10
4.200000
20
-1.400000
0
VERTEX
8
0
10
4.200000
20
-1.500000
0
SEQEND
8
0
0
POLYLINE
8
0
66
1
40
0.016000
41
0.016000
0
VERTEX
8
0
10
2.800000
20
-1.700000
0
VERTEX
8
0
10
2.800000
20
-1.600000
0
VERTEX
8
0
10
3.200000
20
-1.600000
0
SEQEND
8
0
0
POLYLINE
8
0
66
1
40
0.016000
41
0.016000
0
VERTEX
8
0
10
3.800000
20
-1.700000
0
VERTEX
8
0
10
3.700000
20
-1.700000
0
VERTEX
8
0
10
3.700000
20
-1.600000
0
VERTEX
8
0
10
3.200000
20
-1.600000
0
SEQEND
8
0
0
POLYLINE
8
0
66
1
40
0.016000
41
0.016000
0
VERTEX
8
0
10
3.100000
20
-2.600000
0
VERTEX
8
0
10
3.000000
20
-2.600000
0
VERTEX
8
0
10
3.000000
20
-2.500000
0
VERTEX
8
0
10
2.400000
20
-2.500000
0
SEQEND
8
0
0
POLYLINE
8
0
66
1
40
0.016000
41
0.016000
0
VERTEX
8
0
10
2.800000
20
-2.000000
0
VERTEX
8
0
10
2.800000
20
-2.100000
0
VERTEX
8
0
10
3.500000
20
-2.100000
0
SEQEND
8
0
0
POLYLINE
8
0
66
1
40
0.016000
41
0.016000
0
VERTEX
8
0
10
3.800000
20
-2.000000
0
VERTEX
8
0
10
3.500000
20
-2.000000
0
VERTEX
8
0
10
3.500000
20
-2.100000
0
SEQEND
8
0
0
POLYLINE
8
0
66
1
40
0.016000
41
0.016000
0
VERTEX
8
0
10
3.500000
20
-2.300000
0
VERTEX
8
0
10
3.500000
20
-2.100000
0
SEQEND
8
0
0
POLYLINE
8
0
66
1
40
0.016000
41
0.016000
0
VERTEX
8
0
10
1.200000
20
-2.500000
0
VERTEX
8
0
10
1.200000
20
-3.100000
0
VERTEX
8
0
10
3.400000
20
-3.100000
0
VERTEX
8
0
10
3.400000
20
-3.200000
0
VERTEX
8
0
10
3.500000
20
-3.200000
0
SEQEND
8
0
0
POLYLINE
8
0
66
1
40
0.016000
41
0.016000
0
VERTEX
8
0
10
4.400000
20
-3.100000
0
VERTEX
8
0
10
4.400000
20
-3.200000
0
VERTEX
8
0
10
3.500000
20
-3.200000
0
SEQEND
8
0
0
POLYLINE
8
0
66
1
40
0.016000
41
0.016000
0
VERTEX
8
0
10
3.500000
20
-2.900000
0
VERTEX
8
0
10
3.500000
20
-3.200000
0
SEQEND
8
0
0
POLYLINE
8
0
66
1
40
0.016000
41
0.016000
0
VERTEX
8
0
10
2.000000
20
0.400000
0
VERTEX
8
0
10
2.000000
20
0.400000
0
SEQEND
8
0
0
POLYLINE
8
0
66
1
40
0.016000
41
0.016000
0
VERTEX
8
0
10
2.000000
20
0.300000
0
VERTEX
8
0
10
2.000000
20
0.300000
0
SEQEND
8
0
0
POLYLINE
8
0
66
1
40
0.016000
41
0.016000
0
VERTEX
8
0
10
2.000000
20
0.200000
0
VERTEX
8
0
10
2.000000
20
0.200000
0
SEQEND
8
0
0
POLYLINE
8
0
66
1
40
0.016000
41
0.016000
0
VERTEX
8
0
10
2.000000
20
0.100000
0
VERTEX
8
0
10
2.000000
20
0.100000
0
SEQEND
8
0
0
POLYLINE
8
0
66
1
40
0.016000
41
0.016000
0
VERTEX
8
0
10
2.000000
20
0.000000
0
VERTEX
8
0
10
2.000000
20
0.000000
0
SEQEND
8
0
0
POLYLINE
8
0
66
1
40
0.016000
41
0.016000
0
VERTEX
8
0
10
2.000000
20
-0.100000
0
VERTEX
8
0
10
2.000000
20
-0.100000
0
SEQEND
8
0
0
POLYLINE
8
0
66
1
40
0.016000
41
0.016000
0
VERTEX
8
0
10
2.000000
20
-0.200000
0
VERTEX
8
0
10
2.000000
20
-0.200000
0
SEQEND
8
0
0
POLYLINE
8
0
66
1
40
0.016000
41
0.016000
0
VERTEX
8
0
10
2.500000
20
0.400000
0
VERTEX
8
0
10
2.600000
20
0.400000
0
SEQEND
8
0
0
POLYLINE
8
0
66
1
40
0.016000
41
0.016000
0
VERTEX
8
0
10
2.500000
20
0.300000
0
VERTEX
8
0
10
2.600000
20
0.300000
0
SEQEND
8
0
0
POLYLINE
8
0
66
1
40
0.016000
41
0.016000
0
VERTEX
8
0
10
2.500000
20
0.200000
0
VERTEX
8
0
10
2.600000
20
0.200000
0
SEQEND
8
0
0
POLYLINE
8
0
66
1
40
0.016000
41
0.016000
0
VERTEX
8
0
10
2.500000
20
0.100000
0
VERTEX
8
0
10
2.600000
20
0.100000
0
SEQEND
8
0
0
POLYLINE
8
0
66
1
40
0.016000
41
0.016000
0
VERTEX
8
0
10
2.500000
20
0.000000
0
VERTEX
8
0
10
2.600000
20
0.000000
0
SEQEND
8
0
0
POLYLINE
8
0
66
1
40
0.016000
41
0.016000
0
VERTEX
8
0
10
2.500000
20
-0.100000
0
VERTEX
8
0
10
2.600000
20
-0.100000
0
SEQEND
8
0
0
POLYLINE
8
0
66
1
40
0.016000
41
0.016000
0
VERTEX
8
0
10
2.500000
20
-0.200000
0
VERTEX
8
0
10
2.600000
20
-0.200000
0
SEQEND
8
0
0
POLYLINE
8
0
66
1
40
0.016000
41
0.016000
0
VERTEX
8
0
10
4.300000
20
2.000000
0
VERTEX
8
0
10
4.300000
20
1.800000
0
SEQEND
8
0
0
POLYLINE
8
0
66
1
40
0.016000
41
0.016000
0
VERTEX
8
0
10
4.300000
20
1.700000
0
VERTEX
8
0
10
4.300000
20
1.800000
0
SEQEND
8
0
0
POLYLINE
8
0
66
1
40
0.016000
41
0.016000
0
VERTEX
8
0
10
3.300000
20
0.700000
0
VERTEX
8
0
10
3.300000
20
1.300000
0
VERTEX
8
0
10
4.100000
20
1.300000
0
VERTEX
8
0
10
4.100000
20
1.800000
0
VERTEX
8
0
10
4.300000
20
1.800000
0
SEQEND
8
0
0
POLYLINE
8
0
66
1
40
0.016000
41
0.016000
0
VERTEX
8
0
10
2.900000
20
0.800000
0
VERTEX
8
0
10
2.900000
20
0.700000
0
SEQEND
8
0
0
POLYLINE
8
0
66
1
40
0.016000
41
0.016000
0
VERTEX
8
0
10
2.200000
20
0.700000
0
VERTEX
8
0
10
2.900000
20
0.700000
0
SEQEND
8
0
0
POLYLINE
8
0
66
1
40
0.016000
41
0.016000
0
VERTEX
8
0
10
4.300000
20
0.700000
0
VERTEX
8
0
10
2.900000
20
0.700000
0
SEQEND
8
0
0
POLYLINE
8
0
66
1
40
0.016000
41
0.016000
0
VERTEX
8
0
10
4.300000
20
2.000000
0
VERTEX
8
0
10
5.500000
20
2.000000
0
VERTEX
8
0
10
5.500000
20
1.600000
0
SEQEND
8
0
0
POLYLINE
8
0
66
1
40
0.016000
41
0.016000
0
VERTEX
8
0
10
3.200000
20
-1.600000
0
VERTEX
8
0
10
3.200000
20
-1.500000
0
VERTEX
8
0
10
3.100000
20
-1.500000
0
VERTEX
8
0
10
3.100000
20
-1.200000
0
VERTEX
8
0
10
5.500000
20
-1.200000
0
VERTEX
8
0
10
5.500000
20
1.600000
0
SEQEND
8
0
0
POLYLINE
8
0
66
1
40
0.016000
41
0.016000
0
VERTEX
8
0
10
4.400000
20
-2.500000
0
VERTEX
8
0
10
4.400000
20
-2.400000
0
SEQEND
8
0
0
POLYLINE
8
0
66
1
40
0.016000
41
0.016000
0
VERTEX
8
0
10
4.300000
20
-2.200000
0
VERTEX
8
0
10
4.300000
20
-2.400000
0
VERTEX
8
0
10
4.400000
20
-2.400000
0
SEQEND
8
0
0
POLYLINE
8
0
66
1
40
0.016000
41
0.016000
0
VERTEX
8
0
10
5.100000
20
-2.400000
0
VERTEX
8
0
10
4.400000
20
-2.400000
0
SEQEND
8
0
0
POLYLINE
8
0
66
1
40
0.016000
41
0.016000
0
VERTEX
8
0
10
4.100000
20
0.300000
0
VERTEX
8
0
10
4.000000
20
0.300000
0
VERTEX
8
0
10
4.000000
20
-0.500000
0
VERTEX
8
0
10
0.200000
20
-0.500000
0
VERTEX
8
0
10
0.200000
20
0.800000
0
VERTEX
8
0
10
-0.200000
20
0.800000
0
SEQEND
8
0
0
POLYLINE
8
0
66
1
40
0.016000
41
0.016000
0
VERTEX
8
0
10
4.100000
20
0.200000
0
VERTEX
8
0
10
3.900000
20
0.200000
0
VERTEX
8
0
10
3.900000
20
-0.600000
0
VERTEX
8
0
10
-0.100000
20
-0.600000
0
VERTEX
8
0
10
-0.100000
20
0.700000
0
VERTEX
8
0
10
-0.200000
20
0.700000
0
SEQEND
8
0
0
POLYLINE
8
0
66
1
40
0.016000
41
0.016000
0
VERTEX
8
0
10
4.100000
20
0.000000
0
VERTEX
8
0
10
3.400000
20
0.000000
0
VERTEX
8
0
10
3.400000
20
-0.800000
0
VERTEX
8
0
10
0.000000
20
-0.800000
0
VERTEX
8
0
10
0.000000
20
0.500000
0
VERTEX
8
0
10
-0.200000
20
0.500000
0
SEQEND
8
0
0
POLYLINE
8
0
66
1
40
0.016000
41
0.016000
0
VERTEX
8
0
10
4.100000
20
0.100000
0
VERTEX
8
0
10
3.800000
20
0.100000
0
VERTEX
8
0
10
3.800000
20
-0.700000
0
VERTEX
8
0
10
0.400000
20
-0.700000
0
VERTEX
8
0
10
0.400000
20
0.600000
0
VERTEX
8
0
10
-0.200000
20
0.600000
0
SEQEND
8
0
0
POLYLINE
8
0
66
1
40
0.016000
41
0.016000
0
VERTEX
8
0
10
1.900000
20
-2.500000
0
VERTEX
8
0
10
1.800000
20
-2.500000
0
VERTEX
8
0
10
1.800000
20
-2.600000
0
VERTEX
8
0
10
-2.900000
20
-2.600000
0
VERTEX
8
0
10
-2.900000
20
0.500000
0
VERTEX
8
0
10
-2.800000
20
0.500000
0
SEQEND
8
0
0
POLYLINE
8
0
66
1
40
0.016000
41
0.016000
0
VERTEX
8
0
10
1.400000
20
1.700000
0
VERTEX
8
0
10
1.400000
20
2.100000
0
VERTEX
8
0
10
-3.600000
20
2.100000
0
VERTEX
8
0
10
-3.600000
20
0.600000
0
VERTEX
8
0
10
-2.800000
20
0.600000
0
SEQEND
8
0
0
POLYLINE
8
0
66
1
40
0.016000
41
0.016000
0
VERTEX
8
0
10
2.200000
20
1.700000
0
VERTEX
8
0
10
2.200000
20
1.900000
0
VERTEX
8
0
10
1.000000
20
1.900000
0
VERTEX
8
0
10
1.000000
20
1.000000
0
VERTEX
8
0
10
0.200000
20
1.000000
0
VERTEX
8
0
10
0.200000
20
2.000000
0
VERTEX
8
0
10
-3.200000
20
2.000000
0
VERTEX
8
0
10
-3.200000
20
0.700000
0
VERTEX
8
0
10
-2.800000
20
0.700000
0
SEQEND
8
0
0
POLYLINE
8
0
66
1
40
0.016000
41
0.016000
0
VERTEX
8
0
10
2.900000
20
1.700000
0
VERTEX
8
0
10
2.900000
20
1.800000
0
VERTEX
8
0
10
-2.800000
20
1.800000
0
VERTEX
8
0
10
-2.800000
20
1.000000
0
VERTEX
8
0
10
-2.900000
20
1.000000
0
VERTEX
8
0
10
-2.900000
20
0.800000
0
VERTEX
8
0
10
-2.800000
20
0.800000
0
SEQEND
8
0
0
POLYLINE
8
0
66
1
40
0.016000
41
0.016000
0
VERTEX
8
0
10
0.800000
20
0.400000
0
VERTEX
8
0
10
-0.200000
20
0.400000
0
SEQEND
8
0
0
POLYLINE
8
0
66
1
40
0.016000
41
0.016000
0
VERTEX
8
0
10
0.800000
20
0.300000
0
VERTEX
8
0
10
-0.200000
20
0.300000
0
SEQEND
8
0
0
POLYLINE
8
0
66
1
40
0.016000
41
0.016000
0
VERTEX
8
0
10
0.800000
20
0.100000
0
VERTEX
8
0
10
-0.200000
20
0.100000
0
SEQEND
8
0
0
POLYLINE
8
0
66
1
40
0.016000
41
0.016000
0
VERTEX
8
0
10
0.800000
20
0.200000
0
VERTEX
8
0
10
-0.200000
20
0.200000
0
SEQEND
8
0
0
POLYLINE
8
0
66
1
40
0.016000
41
0.016000
0
VERTEX
8
0
10
-4.050000
20
2.800000
0
VERTEX
8
0
10
-2.700000
20
2.800000
0
SEQEND
8
0
0
POLYLINE
8
0
66
1
40
0.016000
41
0.016000
0
VERTEX
8
0
10
-2.700000
20
1.700000
0
VERTEX
8
0
10
-2.700000
20
2.800000
0
SEQEND
8
0
0
POLYLINE
8
0
66
1
40
0.016000
41
0.016000
0
VERTEX
8
0
10
-0.200000
20
-0.100000
0
VERTEX
8
0
10
0.500000
20
-0.100000
0
VERTEX
8
0
10
0.500000
20
2.900000
0
VERTEX
8
0
10
-2.700000
20
2.900000
0
VERTEX
8
0
10
-2.700000
20
2.800000
0
SEQEND
8
0
0
POLYLINE
8
0
66
1
40
0.016000
41
0.016000
0
VERTEX
8
0
10
-4.050000
20
2.500000
0
VERTEX
8
0
10
-3.100000
20
2.500000
0
SEQEND
8
0
0
POLYLINE
8
0
66
1
40
0.016000
41
0.016000
0
VERTEX
8
0
10
-3.100000
20
1.700000
0
VERTEX
8
0
10
-3.100000
20
2.500000
0
SEQEND
8
0
0
POLYLINE
8
0
66
1
40
0.016000
41
0.016000
0
VERTEX
8
0
10
-0.200000
20
-0.200000
0
VERTEX
8
0
10
0.600000
20
-0.200000
0
VERTEX
8
0
10
0.600000
20
3.000000
0
VERTEX
8
0
10
-3.100000
20
3.000000
0
VERTEX
8
0
10
-3.100000
20
2.500000
0
SEQEND
8
0
0
POLYLINE
8
0
66
1
40
0.016000
41
0.016000
0
VERTEX
8
0
10
-4.050000
20
2.200000
0
VERTEX
8
0
10
-3.500000
20
2.200000
0
SEQEND
8
0
0
POLYLINE
8
0
66
1
40
0.016000
41
0.016000
0
VERTEX
8
0
10
-3.500000
20
1.700000
0
VERTEX
8
0
10
-3.500000
20
2.200000
0
SEQEND
8
0
0
POLYLINE
8
0
66
1
40
0.016000
41
0.016000
0
VERTEX
8
0
10
-0.200000
20
-0.300000
0
VERTEX
8
0
10
0.700000
20
-0.300000
0
VERTEX
8
0
10
0.700000
20
3.100000
0
VERTEX
8
0
10
-3.500000
20
3.100000
0
VERTEX
8
0
10
-3.500000
20
2.200000
0
SEQEND
8
0
0
POLYLINE
8
0
66
1
40
0.016000
41
0.016000
0
VERTEX
8
0
10
-3.900000
20
1.700000
0
VERTEX
8
0
10
-3.900000
20
1.900000
0
SEQEND
8
0
0
POLYLINE
8
0
66
1
40
0.016000
41
0.016000
0
VERTEX
8
0
10
-4.050000
20
1.900000
0
VERTEX
8
0
10
-3.900000
20
1.900000
0
SEQEND
8
0
0
POLYLINE
8
0
66
1
40
0.016000
41
0.016000
0
VERTEX
8
0
10
-0.200000
20
-0.400000
0
VERTEX
8
0
10
0.300000
20
-0.400000
0
VERTEX
8
0
10
0.300000
20
1.900000
0
VERTEX
8
0
10
-3.900000
20
1.900000
0
SEQEND
8
0
0
POLYLINE
8
0
66
1
40
0.016000
41
0.016000
0
VERTEX
8
0
10
-4.600000
20
2.800000
0
VERTEX
8
0
10
-5.100000
20
2.800000
0
VERTEX
8
0
10
-5.100000
20
3.200000
0
SEQEND
8
0
0
POLYLINE
8
0
66
1
40
0.016000
41
0.016000
0
VERTEX
8
0
10
4.300000
20
2.000000
0
VERTEX
8
0
10
4.300000
20
3.200000
0
VERTEX
8
0
10
-5.100000
20
3.200000
0
SEQEND
8
0
0
CIRCLE
8
128
10
-4.180000
20
2.500000
40
0.030000
0
CIRCLE
8
128
10
-4.420000
20
2.500000
40
0.030000
0
POLYLINE
8
0
66
1
40
0.016000
41
0.016000
0
VERTEX
8
0
10
-4.440000
20
2.580000
0
VERTEX
8
0
10
-4.160000
20
2.580000
0
SEQEND
8
0
0
POLYLINE
8
0
66
1
40
0.016000
41
0.016000
0
VERTEX
8
0
10
-4.380000
20
2.580000
0
VERTEX
8
0
10
-4.220000
20
2.580000
0
VERTEX
8
0
10
-4.220000
20
2.630000
0
VERTEX
8
0
10
-4.380000
20
2.630000
0
VERTEX
8
0
10
-4.380000
20
2.580000
0
SEQEND
8
0
0
POLYLINE
8
0
66
1
40
0.016000
41
0.016000
0
VERTEX
8
0
10
-4.550000
20
2.500000
0
VERTEX
8
0
10
-4.450000
20
2.500000
0
SEQEND
8
0
0
POLYLINE
8
0
66
1
40
0.016000
41
0.016000
0
VERTEX
8
0
10
-4.050000
20
2.500000
0
VERTEX
8
0
10
-4.150000
20
2.500000
0
SEQEND
8
0
0
CIRCLE
8
255
10
-4.100000
20
2.600000
40
0.040000
0
POLYLINE
8
0
66
1
40
0.008000
41
0.008000
0
VERTEX
8
0
10
-4.100000
20
2.580000
0
VERTEX
8
0
10
-4.100000
20
2.620000
0
SEQEND
8
0
0
POLYLINE
8
0
66
1
40
0.008000
41
0.008000
0
VERTEX
8
0
10
-4.100000
20
2.580000
0
VERTEX
8
0
10
-4.110000
20
2.590000
0
SEQEND
8
0
0
POLYLINE
8
0
66
1
40
0.008000
41
0.008000
0
VERTEX
8
0
10
-4.100000
20
2.580000
0
VERTEX
8
0
10
-4.090000
20
2.590000
0
SEQEND
8
0
0
POLYLINE
8
0
66
1
40
0.008000
41
0.008000
0
VERTEX
8
0
10
-4.110000
20
2.610000
0
VERTEX
8
0
10
-4.100000
20
2.620000
0
VERTEX
8
0
10
-4.090000
20
2.610000
0
SEQEND
8
0
0
CIRCLE
8
128
10
-4.180000
20
2.200000
40
0.030000
0
CIRCLE
8
128
10
-4.420000
20
2.200000
40
0.030000
0
POLYLINE
8
0
66
1
40
0.016000
41
0.016000
0
VERTEX
8
0
10
-4.440000
20
2.280000
0
VERTEX
8
0
10
-4.160000
20
2.280000
0
SEQEND
8
0
0
POLYLINE
8
0
66
1
40
0.016000
41
0.016000
0
VERTEX
8
0
10
-4.380000
20
2.280000
0
VERTEX
8
0
10
-4.220000
20
2.280000
0
VERTEX
8
0
10
-4.220000
20
2.330000
0
VERTEX
8
0
10
-4.380000
20
2.330000
0
VERTEX
8
0
10
-4.380000
20
2.280000
0
SEQEND
8
0
0
POLYLINE
8
0
66
1
40
0.016000
41
0.016000
0
VERTEX
8
0
10
-4.550000
20
2.200000
0
VERTEX
8
0
10
-4.450000
20
2.200000
0
SEQEND
8
0
0
POLYLINE
8
0
66
1
40
0.016000
41
0.016000
0
VERTEX
8
0
10
-4.050000
20
2.200000
0
VERTEX
8
0
10
-4.150000
20
2.200000
0
SEQEND
8
0
0
CIRCLE
8
255
10
-4.100000
20
2.300000
40
0.040000
0
POLYLINE
8
0
66
1
40
0.008000
41
0.008000
0
VERTEX
8
0
10
-4.100000
20
2.280000
0
VERTEX
8
0
10
-4.100000
20
2.320000
0
SEQEND
8
0
0
POLYLINE
8
0
66
1
40
0.008000
41
0.008000
0
VERTEX
8
0
10
-4.100000
20
2.280000
0
VERTEX
8
0
10
-4.110000
20
2.290000
0
SEQEND
8
0
0
POLYLINE
8
0
66
1
40
0.008000
41
0.008000
0
VERTEX
8
0
10
-4.100000
20
2.280000
0
VERTEX
8
0
10
-4.090000
20
2.290000
0
SEQEND
8
0
0
POLYLINE
8
0
66
1
40
0.008000
41
0.008000
0
VERTEX
8
0
10
-4.110000
20
2.310000
0
VERTEX
8
0
10
-4.100000
20
2.320000
0
VERTEX
8
0
10
-4.090000
20
2.310000
0
SEQEND
8
0
0
CIRCLE
8
128
10
-4.180000
20
1.900000
40
0.030000
0
CIRCLE
8
128
10
-4.420000
20
1.900000
40
0.030000
0
POLYLINE
8
0
66
1
40
0.016000
41
0.016000
0
VERTEX
8
0
10
-4.440000
20
1.980000
0
VERTEX
8
0
10
-4.160000
20
1.980000
0
SEQEND
8
0
0
POLYLINE
8
0
66
1
40
0.016000
41
0.016000
0
VERTEX
8
0
10
-4.380000
20
1.980000
0
VERTEX
8
0
10
-4.220000
20
1.980000
0
VERTEX
8
0
10
-4.220000
20
2.030000
0
VERTEX
8
0
10
-4.380000
20
2.030000
0
VERTEX
8
0
10
-4.380000
20
1.980000
0
SEQEND
8
0
0
POLYLINE
8
0
66
1
40
0.016000
41
0.016000
0
VERTEX
8
0
10
-4.550000
20
1.900000
0
VERTEX
8
0
10
-4.450000
20
1.900000
0
SEQEND
8
0
0
POLYLINE
8
0
66
1
40
0.016000
41
0.016000
0
VERTEX
8
0
10
-4.050000
20
1.900000
0
VERTEX
8
0
10
-4.150000
20
1.900000
0
SEQEND
8
0
0
CIRCLE
8
255
10
-4.100000
20
2.000000
40
0.040000
0
POLYLINE
8
0
66
1
40
0.008000
41
0.008000
0
VERTEX
8
0
10
-4.100000
20
1.980000
0
VERTEX
8
0
10
-4.100000
20
2.020000
0
SEQEND
8
0
0
POLYLINE
8
0
66
1
40
0.008000
41
0.008000
0
VERTEX
8
0
10
-4.100000
20
1.980000
0
VERTEX
8
0
10
-4.110000
20
1.990000
0
SEQEND
8
0
0
POLYLINE
8
0
66
1
40
0.008000
41
0.008000
0
VERTEX
8
0
10
-4.100000
20
1.980000
0
VERTEX
8
0
10
-4.090000
20
1.990000
0
SEQEND
8
0
0
POLYLINE
8
0
66
1
40
0.008000
41
0.008000
0
VERTEX
8
0
10
-4.110000
20
2.010000
0
VERTEX
8
0
10
-4.100000
20
2.020000
0
VERTEX
8
0
10
-4.090000
20
2.010000
0
SEQEND
8
0
0
POLYLINE
8
0
66
1
40
0.016000
41
0.016000
0
VERTEX
8
0
10
-3.940000
20
1.300000
0
VERTEX
8
0
10
-3.860000
20
1.300000
0
VERTEX
8
0
10
-3.860000
20
1.600000
0
VERTEX
8
0
10
-3.940000
20
1.600000
0
VERTEX
8
0
10
-3.940000
20
1.300000
0
SEQEND
8
0
0
POLYLINE
8
0
66
1
40
0.016000
41
0.016000
0
VERTEX
8
0
10
-3.900000
20
1.700000
0
VERTEX
8
0
10
-3.900000
20
1.600000
0
SEQEND
8
0
0
POLYLINE
8
0
66
1
40
0.016000
41
0.016000
0
VERTEX
8
0
10
-3.900000
20
1.200000
0
VERTEX
8
0
10
-3.900000
20
1.300000
0
SEQEND
8
0
0
TEXT
8
0
10
-3.802000
20
1.473000
40
0.120000
41
0.666667
1
R1
0
TEXT
8
0
10
-3.802000
20
1.368000
40
0.080000
41
1.000000
1
10k
0
POLYLINE
8
0
66
1
40
0.016000
41
0.016000
0
VERTEX
8
0
10
-3.540000
20
1.300000
0
VERTEX
8
0
10
-3.460000
20
1.300000
0
VERTEX
8
0
10
-3.460000
20
1.600000
0
VERTEX
8
0
10
-3.540000
20
1.600000
0
VERTEX
8
0
10
-3.540000
20
1.300000
0
SEQEND
8
0
0
POLYLINE
8
0
66
1
40
0.016000
41
0.016000
0
VERTEX
8
0
10
-3.500000
20
1.700000
0
VERTEX
8
0
10
-3.500000
20
1.600000
0
SEQEND
8
0
0
POLYLINE
8
0
66
1
40
0.016000
41
0.016000
0
VERTEX
8
0
10
-3.500000
20
1.200000
0
VERTEX
8
0
10
-3.500000
20
1.300000
0
SEQEND
8
0
0
TEXT
8
0
10
-3.402000
20
1.473000
40
0.120000
41
0.666667
1
R2
0
TEXT
8
0
10
-3.402000
20
1.368000
40
0.080000
41
1.000000
1
10k
0
POLYLINE
8
0
66
1
40
0.016000
41
0.016000
0
VERTEX
8
0
10
-3.140000
20
1.300000
0
VERTEX
8
0
10
-3.060000
20
1.300000
0
VERTEX
8
0
10
-3.060000
20
1.600000
0
VERTEX
8
0
10
-3.140000
20
1.600000
0
VERTEX
8
0
10
-3.140000
20
1.300000
0
SEQEND
8
0
0
POLYLINE
8
0
66
1
40
0.016000
41
0.016000
0
VERTEX
8
0
10
-3.100000
20
1.700000
0
VERTEX
8
0
10
-3.100000
20
1.600000
0
SEQEND
8
0
0
POLYLINE
8
0
66
1
40
0.016000
41
0.016000
0
VERTEX
8
0
10
-3.100000
20
1.200000
0
VERTEX
8
0
10
-3.100000
20
1.300000
0
SEQEND
8
0
0
TEXT
8
0
10
-3.002000
20
1.473000
40
0.120000
41
0.666667
1
R3
0
TEXT
8
0
10
-3.002000
20
1.368000
40
0.080000
41
1.000000
1
10k
0
POLYLINE
8
0
66
1
40
0.008000
41
0.008000
0
VERTEX
8
0
10
-4.650000
20
1.350000
0
VERTEX
8
0
10
-4.750000
20
1.400000
0
VERTEX
8
0
10
-4.700000
20
1.450000
0
VERTEX
8
0
10
-4.650000
20
1.350000
0
SEQEND
8
0
0
POLYLINE
8
0
66
1
40
0.008000
41
0.008000
0
VERTEX
8
0
10
-4.600000
20
1.300000
0
VERTEX
8
0
10
-4.650000
20
1.350000
0
SEQEND
8
0
0
POLYLINE
8
0
66
1
40
0.008000
41
0.008000
0
VERTEX
8
0
10
-4.600000
20
1.390000
0
VERTEX
8
0
10
-4.580000
20
1.390000
0
SEQEND
8
0
0
POLYLINE
8
0
66
1
40
0.008000
41
0.008000
0
VERTEX
8
0
10
-4.560000
20
1.390000
0
VERTEX
8
0
10
-4.540000
20
1.390000
0
SEQEND
8
0
0
POLYLINE
8
0
66
1
40
0.008000
41
0.008000
0
VERTEX
8
0
10
-4.520000
20
1.390000
0
VERTEX
8
0
10
-4.500000
20
1.390000
0
SEQEND
8
0
0
POLYLINE
8
0
66
1
40
0.008000
41
0.008000
0
VERTEX
8
0
10
-4.480000
20
1.390000
0
VERTEX
8
0
10
-4.460000
20
1.390000
0
SEQEND
8
0
0
POLYLINE
8
0
66
1
40
0.008000
41
0.008000
0
VERTEX
8
0
10
-4.600000
20
1.360000
0
VERTEX
8
0
10
-4.420000
20
1.360000
0
SEQEND
8
0
0
POLYLINE
8
0
66
1
40
0.008000
41
0.008000
0
VERTEX
8
0
10
-4.440000
20
1.390000
0
VERTEX
8
0
10
-4.420000
20
1.390000
0
SEQEND
8
0
0
TEXT
8
12582912
10
-5.180000
20
1.410000
40
0.080000
41
1.000000
1
R1(2)
0
CIRCLE
8
16384
10
-3.900000
20
1.100000
40
0.020000
0
CIRCLE
8
16384
10
-3.500000
20
1.100000
40
0.020000
0
CIRCLE
8
16384
10
-4.600000
20
2.200000
40
0.020000
0
CIRCLE
8
16384
10
-4.600000
20
2.500000
40
0.020000
0
POLYLINE
8
0
66
1
40
0.016000
41
0.016000
0
VERTEX
8
0
10
-2.740000
20
1.300000
0
VERTEX
8
0
10
-2.660000
20
1.300000
0
VERTEX
8
0
10
-2.660000
20
1.600000
0
VERTEX
8
0
10
-2.740000
20
1.600000
0
VERTEX
8
0
10
-2.740000
20
1.300000
0
SEQEND
8
0
0
POLYLINE
8
0
66
1
40
0.016000
41
0.016000
0
VERTEX
8
0
10
-2.700000
20
1.700000
0
VERTEX
8
0
10
-2.700000
20
1.600000
0
SEQEND
8
0
0
POLYLINE
8
0
66
1
40
0.016000
41
0.016000
0
VERTEX
8
0
10
-2.700000
20
1.200000
0
VERTEX
8
0
10
-2.700000
20
1.300000
0
SEQEND
8
0
0
TEXT
8
0
10
-2.602000
20
1.473000
40
0.120000
41
0.666667
1
R4
0
TEXT
8
0
10
-2.602000
20
1.368000
40
0.080000
41
1.000000
1
10k
0
CIRCLE
8
128
10
-4.180000
20
2.800000
40
0.030000
0
CIRCLE
8
128
10
-4.420000
20
2.800000
40
0.030000
0
POLYLINE
8
0
66
1
40
0.016000
41
0.016000
0
VERTEX
8
0
10
-4.440000
20
2.880000
0
VERTEX
8
0
10
-4.160000
20
2.880000
0
SEQEND
8
0
0
POLYLINE
8
0
66
1
40
0.016000
41
0.016000
0
VERTEX
8
0
10
-4.380000
20
2.880000
0
VERTEX
8
0
10
-4.220000
20
2.880000
0
VERTEX
8
0
10
-4.220000
20
2.930000
0
VERTEX
8
0
10
-4.380000
20
2.930000
0
VERTEX
8
0
10
-4.380000
20
2.880000
0
SEQEND
8
0
0
POLYLINE
8
0
66
1
40
0.016000
41
0.016000
0
VERTEX
8
0
10
-4.550000
20
2.800000
0
VERTEX
8
0
10
-4.450000
20
2.800000
0
SEQEND
8
0
0
POLYLINE
8
0
66
1
40
0.016000
41
0.016000
0
VERTEX
8
0
10
-4.050000
20
2.800000
0
VERTEX
8
0
10
-4.150000
20
2.800000
0
SEQEND
8
0
0
CIRCLE
8
255
10
-4.100000
20
2.900000
40
0.040000
0
POLYLINE
8
0
66
1
40
0.008000
41
0.008000
0
VERTEX
8
0
10
-4.100000
20
2.880000
0
VERTEX
8
0
10
-4.100000
20
2.920000
0
SEQEND
8
0
0
POLYLINE
8
0
66
1
40
0.008000
41
0.008000
0
VERTEX
8
0
10
-4.100000
20
2.880000
0
VERTEX
8
0
10
-4.110000
20
2.890000
0
SEQEND
8
0
0
POLYLINE
8
0
66
1
40
0.008000
41
0.008000
0
VERTEX
8
0
10
-4.100000
20
2.880000
0
VERTEX
8
0
10
-4.090000
20
2.890000
0
SEQEND
8
0
0
POLYLINE
8
0
66
1
40
0.008000
41
0.008000
0
VERTEX
8
0
10
-4.110000
20
2.910000
0
VERTEX
8
0
10
-4.100000
20
2.920000
0
VERTEX
8
0
10
-4.090000
20
2.910000
0
SEQEND
8
0
0
CIRCLE
8
16384
10
-4.600000
20
2.800000
40
0.020000
0
CIRCLE
8
16384
10
-3.100000
20
1.100000
40
0.020000
0
POLYLINE
8
0
66
1
40
0.016000
41
0.016000
0
VERTEX
8
0
10
1.360000
20
0.900000
0
VERTEX
8
0
10
1.440000
20
0.900000
0
VERTEX
8
0
10
1.440000
20
1.200000
0
VERTEX
8
0
10
1.360000
20
1.200000
0
VERTEX
8
0
10
1.360000
20
0.900000
0
SEQEND
8
0
0
POLYLINE
8
0
66
1
40
0.016000
41
0.016000
0
VERTEX
8
0
10
1.400000
20
1.300000
0
VERTEX
8
0
10
1.400000
20
1.200000
0
SEQEND
8
0
0
POLYLINE
8
0
66
1
40
0.016000
41
0.016000
0
VERTEX
8
0
10
1.400000
20
0.800000
0
VERTEX
8
0
10
1.400000
20
0.900000
0
SEQEND
8
0
0
TEXT
8
0
10
1.498000
20
1.073000
40
0.120000
41
0.666667
1
R5
0
TEXT
8
0
10
1.498000
20
0.968000
40
0.080000
41
1.000000
1
1k
0
POLYLINE
8
0
66
1
40
0.016000
41
0.016000
0
VERTEX
8
0
10
2.160000
20
0.900000
0
VERTEX
8
0
10
2.240000
20
0.900000
0
VERTEX
8
0
10
2.240000
20
1.200000
0
VERTEX
8
0
10
2.160000
20
1.200000
0
VERTEX
8
0
10
2.160000
20
0.900000
0
SEQEND
8
0
0
POLYLINE
8
0
66
1
40
0.016000
41
0.016000
0
VERTEX
8
0
10
2.200000
20
1.300000
0
VERTEX
8
0
10
2.200000
20
1.200000
0
SEQEND
8
0
0
POLYLINE
8
0
66
1
40
0.016000
41
0.016000
0
VERTEX
8
0
10
2.200000
20
0.800000
0
VERTEX
8
0
10
2.200000
20
0.900000
0
SEQEND
8
0
0
TEXT
8
0
10
2.298000
20
1.073000
40
0.120000
41
0.666667
1
R6
0
TEXT
8
0
10
2.298000
20
0.968000
40
0.080000
41
1.000000
1
1k
0
POLYLINE
8
0
66
1
40
0.016000
41
0.016000
0
VERTEX
8
0
10
2.860000
20
0.900000
0
VERTEX
8
0
10
2.940000
20
0.900000
0
VERTEX
8
0
10
2.940000
20
1.200000
0
VERTEX
8
0
10
2.860000
20
1.200000
0
VERTEX
8
0
10
2.860000
20
0.900000
0
SEQEND
8
0
0
POLYLINE
8
0
66
1
40
0.016000
41
0.016000
0
VERTEX
8
0
10
2.900000
20
1.300000
0
VERTEX
8
0
10
2.900000
20
1.200000
0
SEQEND
8
0
0
POLYLINE
8
0
66
1
40
0.016000
41
0.016000
0
VERTEX
8
0
10
2.900000
20
0.800000
0
VERTEX
8
0
10
2.900000
20
0.900000
0
SEQEND
8
0
0
TEXT
8
0
10
2.998000
20
1.073000
40
0.120000
41
0.666667
1
R7
0
TEXT
8
0
10
2.998000
20
0.968000
40
0.080000
41
1.000000
1
1k
0
CIRCLE
8
128
10
1.400000
20
1.500000
40
0.120000
0
POLYLINE
8
0
66
1
40
0.015000
41
0.015000
0
VERTEX
8
0
10
1.450000
20
1.450000
0
VERTEX
8
0
10
1.350000
20
1.450000
0
SEQEND
8
0
0
POLYLINE
8
0
66
1
40
0.016000
41
0.016000
0
VERTEX
8
0
10
1.400000
20
1.600000
0
VERTEX
8
0
10
1.400000
20
1.530000
0
SEQEND
8
0
0
POLYLINE
8
0
66
1
40
0.016000
41
0.016000
0
VERTEX
8
0
10
1.400000
20
1.450000
0
VERTEX
8
0
10
1.400000
20
1.400000
0
SEQEND
8
0
0
POLYLINE
8
0
66
1
40
0.015000
41
0.015000
0
VERTEX
8
0
10
1.400000
20
1.450000
0
VERTEX
8
0
10
1.340000
20
1.530000
0
VERTEX
8
0
10
1.460000
20
1.530000
0
VERTEX
8
0
10
1.400000
20
1.450000
0
SEQEND
8
0
0
POLYLINE
8
0
66
1
40
0.016000
41
0.016000
0
VERTEX
8
0
10
1.400000
20
1.700000
0
VERTEX
8
0
10
1.400000
20
1.600000
0
SEQEND
8
0
0
POLYLINE
8
0
66
1
40
0.016000
41
0.016000
0
VERTEX
8
0
10
1.400000
20
1.300000
0
VERTEX
8
0
10
1.400000
20
1.400000
0
SEQEND
8
0
0
TEXT
8
0
10
1.578000
20
1.493000
40
0.120000
41
0.666667
1
D1
0
TEXT
8
0
10
1.578000
20
1.388000
40
0.080000
41
1.000000
1
LED-GREEN
0
CIRCLE
8
128
10
2.200000
20
1.500000
40
0.120000
0
POLYLINE
8
0
66
1
40
0.015000
41
0.015000
0
VERTEX
8
0
10
2.250000
20
1.450000
0
VERTEX
8
0
10
2.150000
20
1.450000
0
SEQEND
8
0
0
POLYLINE
8
0
66
1
40
0.016000
41
0.016000
0
VERTEX
8
0
10
2.200000
20
1.600000
0
VERTEX
8
0
10
2.200000
20
1.530000
0
SEQEND
8
0
0
POLYLINE
8
0
66
1
40
0.016000
41
0.016000
0
VERTEX
8
0
10
2.200000
20
1.450000
0
VERTEX
8
0
10
2.200000
20
1.400000
0
SEQEND
8
0
0
POLYLINE
8
0
66
1
40
0.015000
41
0.015000
0
VERTEX
8
0
10
2.200000
20
1.450000
0
VERTEX
8
0
10
2.140000
20
1.530000
0
VERTEX
8
0
10
2.260000
20
1.530000
0
VERTEX
8
0
10
2.200000
20
1.450000
0
SEQEND
8
0
0
POLYLINE
8
0
66
1
40
0.016000
41
0.016000
0
VERTEX
8
0
10
2.200000
20
1.700000
0
VERTEX
8
0
10
2.200000
20
1.600000
0
SEQEND
8
0
0
POLYLINE
8
0
66
1
40
0.016000
41
0.016000
0
VERTEX
8
0
10
2.200000
20
1.300000
0
VERTEX
8
0
10
2.200000
20
1.400000
0
SEQEND
8
0
0
TEXT
8
0
10
2.378000
20
1.493000
40
0.120000
41
0.666667
1
D2
0
TEXT
8
0
10
2.378000
20
1.388000
40
0.080000
41
1.000000
1
LED-BLUE
0
CIRCLE
8
128
10
2.900000
20
1.500000
40
0.120000
0
POLYLINE
8
0
66
1
40
0.015000
41
0.015000
0
VERTEX
8
0
10
2.950000
20
1.450000
0
VERTEX
8
0
10
2.850000
20
1.450000
0
SEQEND
8
0
0
POLYLINE
8
0
66
1
40
0.016000
41
0.016000
0
VERTEX
8
0
10
2.900000
20
1.600000
0
VERTEX
8
0
10
2.900000
20
1.530000
0
SEQEND
8
0
0
POLYLINE
8
0
66
1
40
0.016000
41
0.016000
0
VERTEX
8
0
10
2.900000
20
1.450000
0
VERTEX
8
0
10
2.900000
20
1.400000
0
SEQEND
8
0
0
POLYLINE
8
0
66
1
40
0.015000
41
0.015000
0
VERTEX
8
0
10
2.900000
20
1.450000
0
VERTEX
8
0
10
2.840000
20
1.530000
0
VERTEX
8
0
10
2.960000
20
1.530000
0
VERTEX
8
0
10
2.900000
20
1.450000
0
SEQEND
8
0
0
POLYLINE
8
0
66
1
40
0.016000
41
0.016000
0
VERTEX
8
0
10
2.900000
20
1.700000
0
VERTEX
8
0
10
2.900000
20
1.600000
0
SEQEND
8
0
0
POLYLINE
8
0
66
1
40
0.016000
41
0.016000
0
VERTEX
8
0
10
2.900000
20
1.300000
0
VERTEX
8
0
10
2.900000
20
1.400000
0
SEQEND
8
0
0
TEXT
8
0
10
3.078000
20
1.493000
40
0.120000
41
0.666667
1
D3
0
TEXT
8
0
10
3.078000
20
1.388000
40
0.080000
41
1.000000
1
LED-YELLOW
0
CIRCLE
8
16384
10
-3.000000
20
1.100000
40
0.020000
0
CIRCLE
8
16384
10
1.400000
20
0.700000
40
0.020000
0
CIRCLE
8
16384
10
2.200000
20
0.700000
40
0.020000
0
CIRCLE
8
128
10
4.300000
20
1.500000
40
0.120000
0
POLYLINE
8
0
66
1
40
0.015000
41
0.015000
0
VERTEX
8
0
10
4.350000
20
1.450000
0
VERTEX
8
0
10
4.250000
20
1.450000
0
SEQEND
8
0
0
POLYLINE
8
0
66
1
40
0.016000
41
0.016000
0
VERTEX
8
0
10
4.300000
20
1.600000
0
VERTEX
8
0
10
4.300000
20
1.530000
0
SEQEND
8
0
0
POLYLINE
8
0
66
1
40
0.016000
41
0.016000
0
VERTEX
8
0
10
4.300000
20
1.450000
0
VERTEX
8
0
10
4.300000
20
1.400000
0
SEQEND
8
0
0
POLYLINE
8
0
66
1
40
0.015000
41
0.015000
0
VERTEX
8
0
10
4.300000
20
1.450000
0
VERTEX
8
0
10
4.240000
20
1.530000
0
VERTEX
8
0
10
4.360000
20
1.530000
0
VERTEX
8
0
10
4.300000
20
1.450000
0
SEQEND
8
0
0
POLYLINE
8
0
66
1
40
0.016000
41
0.016000
0
VERTEX
8
0
10
4.300000
20
1.700000
0
VERTEX
8
0
10
4.300000
20
1.600000
0
SEQEND
8
0
0
POLYLINE
8
0
66
1
40
0.016000
41
0.016000
0
VERTEX
8
0
10
4.300000
20
1.300000
0
VERTEX
8
0
10
4.300000
20
1.400000
0
SEQEND
8
0
0
TEXT
8
0
10
4.478000
20
1.493000
40
0.120000
41
0.666667
1
D4
0
TEXT
8
0
10
4.478000
20
1.388000
40
0.080000
41
1.000000
1
LED-RED
0
POLYLINE
8
0
66
1
40
0.016000
41
0.016000
0
VERTEX
8
0
10
4.260000
20
0.800000
0
VERTEX
8
0
10
4.340000
20
0.800000
0
VERTEX
8
0
10
4.340000
20
1.100000
0
VERTEX
8
0
10
4.260000
20
1.100000
0
VERTEX
8
0
10
4.260000
20
0.800000
0
SEQEND
8
0
0
POLYLINE
8
0
66
1
40
0.016000
41
0.016000
0
VERTEX
8
0
10
4.300000
20
1.200000
0
VERTEX
8
0
10
4.300000
20
1.100000
0
SEQEND
8
0
0
POLYLINE
8
0
66
1
40
0.016000
41
0.016000
0
VERTEX
8
0
10
4.300000
20
0.700000
0
VERTEX
8
0
10
4.300000
20
0.800000
0
SEQEND
8
0
0
TEXT
8
0
10
4.398000
20
0.973000
40
0.120000
41
0.666667
1
R8
0
TEXT
8
0
10
4.398000
20
0.868000
40
0.080000
41
1.000000
1
330R
0
POLYLINE
8
0
66
1
40
0.016000
41
0.016000
0
VERTEX
8
0
10
1.000000
20
-0.300000
0
VERTEX
8
0
10
1.800000
20
-0.300000
0
VERTEX
8
0
10
1.800000
20
0.500000
0
VERTEX
8
0
10
1.000000
20
0.500000
0
VERTEX
8
0
10
1.000000
20
-0.300000
0
SEQEND
8
0
0
POLYLINE
8
0
66
1
40
0.016000
41
0.016000
0
VERTEX
8
0
10
0.800000
20
0.400000
0
VERTEX
8
0
10
1.000000
20
0.400000
0
SEQEND
8
0
0
TEXT
8
0
10
1.050000
20
0.360000
40
0.080000
41
1.000000
1
A
0
TEXT
8
0
10
0.820000
20
0.410000
40
0.080000
41
1.000000
1
7
0
CIRCLE
8
128
10
1.830000
20
0.400000
40
0.030000
0
POLYLINE
8
0
66
1
40
0.016000
41
0.016000
0
VERTEX
8
0
10
2.000000
20
0.400000
0
VERTEX
8
0
10
1.860000
20
0.400000
0
SEQEND
8
0
0
TEXT
8
0
10
1.590000
20
0.360000
40
0.080000
41
1.000000
1
QA
0
TEXT
8
0
10
1.900000
20
0.410000
40
0.080000
41
1.000000
1
13
0
POLYLINE
8
0
66
1
40
0.016000
41
0.016000
0
VERTEX
8
0
10
0.800000
20
0.300000
0
VERTEX
8
0
10
1.000000
20
0.300000
0
SEQEND
8
0
0
TEXT
8
0
10
1.050000
20
0.260000
40
0.080000
41
1.000000
1
B
0
TEXT
8
0
10
0.820000
20
0.310000
40
0.080000
41
1.000000
1
1
0
CIRCLE
8
128
10
1.830000
20
0.300000
40
0.030000
0
POLYLINE
8
0
66
1
40
0.016000
41
0.016000
0
VERTEX
8
0
10
2.000000
20
0.300000
0
VERTEX
8
0
10
1.860000
20
0.300000
0
SEQEND
8
0
0
TEXT
8
0
10
1.590000
20
0.260000
40
0.080000
41
1.000000
1
QB
0
TEXT
8
0
10
1.900000
20
0.310000
40
0.080000
41
1.000000
1
12
0
POLYLINE
8
0
66
1
40
0.016000
41
0.016000
0
VERTEX
8
0
10
0.800000
20
0.200000
0
VERTEX
8
0
10
1.000000
20
0.200000
0
SEQEND
8
0
0
TEXT
8
0
10
1.050000
20
0.160000
40
0.080000
41
1.000000
1
C
0
TEXT
8
0
10
0.820000
20
0.210000
40
0.080000
41
1.000000
1
2
0
CIRCLE
8
128
10
1.830000
20
0.200000
40
0.030000
0
POLYLINE
8
0
66
1
40
0.016000
41
0.016000
0
VERTEX
8
0
10
2.000000
20
0.200000
0
VERTEX
8
0
10
1.860000
20
0.200000
0
SEQEND
8
0
0
TEXT
8
0
10
1.590000
20
0.160000
40
0.080000
41
1.000000
1
QC
0
TEXT
8
0
10
1.900000
20
0.210000
40
0.080000
41
1.000000
1
11
0
POLYLINE
8
0
66
1
40
0.016000
41
0.016000
0
VERTEX
8
0
10
0.800000
20
0.100000
0
VERTEX
8
0
10
1.000000
20
0.100000
0
SEQEND
8
0
0
TEXT
8
0
10
1.050000
20
0.060000
40
0.080000
41
1.000000
1
D
0
TEXT
8
0
10
0.820000
20
0.110000
40
0.080000
41
1.000000
1
6
0
CIRCLE
8
128
10
1.830000
20
0.100000
40
0.030000
0
POLYLINE
8
0
66
1
40
0.016000
41
0.016000
0
VERTEX
8
0
10
2.000000
20
0.100000
0
VERTEX
8
0
10
1.860000
20
0.100000
0
SEQEND
8
0
0
TEXT
8
0
10
1.590000
20
0.060000
40
0.080000
41
1.000000
1
QD
0
TEXT
8
0
10
1.900000
20
0.110000
40
0.080000
41
1.000000
1
10
0
CIRCLE
8
128
10
0.970000
20
0.000000
40
0.030000
0
POLYLINE
8
0
66
1
40
0.016000
41
0.016000
0
VERTEX
8
0
10
0.800000
20
0.000000
0
VERTEX
8
0
10
0.940000
20
0.000000
0
SEQEND
8
0
0
TEXT
8
0
10
1.050000
20
-0.040000
40
0.080000
41
1.000000
1
BI/RBO
0
TEXT
8
0
10
0.820000
20
0.010000
40
0.080000
41
1.000000
1
4
0
CIRCLE
8
128
10
1.830000
20
0.000000
40
0.030000
0
POLYLINE
8
0
66
1
40
0.016000
41
0.016000
0
VERTEX
8
0
10
2.000000
20
0.000000
0
VERTEX
8
0
10
1.860000
20
0.000000
0
SEQEND
8
0
0
TEXT
8
0
10
1.590000
20
-0.040000
40
0.080000
41
1.000000
1
QE
0
TEXT
8
0
10
1.900000
20
0.010000
40
0.080000
41
1.000000
1
9
0
CIRCLE
8
128
10
0.970000
20
-0.100000
40
0.030000
0
POLYLINE
8
0
66
1
40
0.016000
41
0.016000
0
VERTEX
8
0
10
0.800000
20
-0.100000
0
VERTEX
8
0
10
0.940000
20
-0.100000
0
SEQEND
8
0
0
TEXT
8
0
10
1.050000
20
-0.140000
40
0.080000
41
1.000000
1
RBI
0
TEXT
8
0
10
0.820000
20
-0.090000
40
0.080000
41
1.000000
1
5
0
CIRCLE
8
128
10
1.830000
20
-0.100000
40
0.030000
0
POLYLINE
8
0
66
1
40
0.016000
41
0.016000
0
VERTEX
8
0
10
2.000000
20
-0.100000
0
VERTEX
8
0
10
1.860000
20
-0.100000
0
SEQEND
8
0
0
TEXT
8
0
10
1.590000
20
-0.140000
40
0.080000
41
1.000000
1
QF
0
TEXT
8
0
10
1.900000
20
-0.090000
40
0.080000
41
1.000000
1
15
0
CIRCLE
8
128
10
0.970000
20
-0.200000
40
0.030000
0
POLYLINE
8
0
66
1
40
0.016000
41
0.016000
0
VERTEX
8
0
10
0.800000
20
-0.200000
0
VERTEX
8
0
10
0.940000
20
-0.200000
0
SEQEND
8
0
0
TEXT
8
0
10
1.050000
20
-0.240000
40
0.080000
41
1.000000
1
LT
0
TEXT
8
0
10
0.820000
20
-0.190000
40
0.080000
41
1.000000
1
3
0
CIRCLE
8
128
10
1.830000
20
-0.200000
40
0.030000
0
POLYLINE
8
0
66
1
40
0.016000
41
0.016000
0
VERTEX
8
0
10
2.000000
20
-0.200000
0
VERTEX
8
0
10
1.860000
20
-0.200000
0
SEQEND
8
0
0
TEXT
8
0
10
1.590000
20
-0.240000
40
0.080000
41
1.000000
1
QG
0
TEXT
8
0
10
1.900000
20
-0.190000
40
0.080000
41
1.000000
1
14
0
TEXT
8
0
10
0.992000
20
0.523000
40
0.120000
41
0.666667
1
U2
0
TEXT
8
0
10
0.992000
20
-0.398000
40
0.080000
41
1.000000
1
74LS47
0
POLYLINE
8
0
66
1
40
0.016000
41
0.016000
0
VERTEX
8
0
10
4.300000
20
-0.400000
0
VERTEX
8
0
10
5.100000
20
-0.400000
0
VERTEX
8
0
10
5.100000
20
0.400000
0
VERTEX
8
0
10
4.300000
20
0.400000
0
VERTEX
8
0
10
4.300000
20
-0.400000
0
SEQEND
8
0
0
POLYLINE
8
0
66
1
40
0.016000
41
0.016000
0
VERTEX
8
0
10
4.100000
20
0.300000
0
VERTEX
8
0
10
4.300000
20
0.300000
0
SEQEND
8
0
0
TEXT
8
0
10
4.350000
20
0.260000
40
0.080000
41
1.000000
1
A
0
TEXT
8
0
10
4.120000
20
0.310000
40
0.080000
41
1.000000
1
7
0
CIRCLE
8
128
10
5.130000
20
0.300000
40
0.030000
0
POLYLINE
8
0
66
1
40
0.016000
41
0.016000
0
VERTEX
8
0
10
5.300000
20
0.300000
0
VERTEX
8
0
10
5.160000
20
0.300000
0
SEQEND
8
0
0
TEXT
8
0
10
4.890000
20
0.260000
40
0.080000
41
1.000000
1
QA
0
TEXT
8
0
10
5.200000
20
0.310000
40
0.080000
41
1.000000
1
13
0
POLYLINE
8
0
66
1
40
0.016000
41
0.016000
0
VERTEX
8
0
10
4.100000
20
0.200000
0
VERTEX
8
0
10
4.300000
20
0.200000
0
SEQEND
8
0
0
TEXT
8
0
10
4.350000
20
0.160000
40
0.080000
41
1.000000
1
B
0
TEXT
8
0
10
4.120000
20
0.210000
40
0.080000
41
1.000000
1
1
0
CIRCLE
8
128
10
5.130000
20
0.200000
40
0.030000
0
POLYLINE
8
0
66
1
40
0.016000
41
0.016000
0
VERTEX
8
0
10
5.300000
20
0.200000
0
VERTEX
8
0
10
5.160000
20
0.200000
0
SEQEND
8
0
0
TEXT
8
0
10
4.890000
20
0.160000
40
0.080000
41
1.000000
1
QB
0
TEXT
8
0
10
5.200000
20
0.210000
40
0.080000
41
1.000000
1
12
0
POLYLINE
8
0
66
1
40
0.016000
41
0.016000
0
VERTEX
8
0
10
4.100000
20
0.100000
0
VERTEX
8
0
10
4.300000
20
0.100000
0
SEQEND
8
0
0
TEXT
8
0
10
4.350000
20
0.060000
40
0.080000
41
1.000000
1
C
0
TEXT
8
0
10
4.120000
20
0.110000
40
0.080000
41
1.000000
1
2
0
CIRCLE
8
128
10
5.130000
20
0.100000
40
0.030000
0
POLYLINE
8
0
66
1
40
0.016000
41
0.016000
0
VERTEX
8
0
10
5.300000
20
0.100000
0
VERTEX
8
0
10
5.160000
20
0.100000
0
SEQEND
8
0
0
TEXT
8
0
10
4.890000
20
0.060000
40
0.080000
41
1.000000
1
QC
0
TEXT
8
0
10
5.200000
20
0.110000
40
0.080000
41
1.000000
1
11
0
POLYLINE
8
0
66
1
40
0.016000
41
0.016000
0
VERTEX
8
0
10
4.100000
20
0.000000
0
VERTEX
8
0
10
4.300000
20
0.000000
0
SEQEND
8
0
0
TEXT
8
0
10
4.350000
20
-0.040000
40
0.080000
41
1.000000
1
D
0
TEXT
8
0
10
4.120000
20
0.010000
40
0.080000
41
1.000000
1
6
0
CIRCLE
8
128
10
5.130000
20
0.000000
40
0.030000
0
POLYLINE
8
0
66
1
40
0.016000
41
0.016000
0
VERTEX
8
0
10
5.300000
20
0.000000
0
VERTEX
8
0
10
5.160000
20
0.000000
0
SEQEND
8
0
0
TEXT
8
0
10
4.890000
20
-0.040000
40
0.080000
41
1.000000
1
QD
0
TEXT
8
0
10
5.200000
20
0.010000
40
0.080000
41
1.000000
1
10
0
CIRCLE
8
128
10
4.270000
20
-0.100000
40
0.030000
0
POLYLINE
8
0
66
1
40
0.016000
41
0.016000
0
VERTEX
8
0
10
4.100000
20
-0.100000
0
VERTEX
8
0
10
4.240000
20
-0.100000
0
SEQEND
8
0
0
TEXT
8
0
10
4.350000
20
-0.140000
40
0.080000
41
1.000000
1
BI/RBO
0
TEXT
8
0
10
4.120000
20
-0.090000
40
0.080000
41
1.000000
1
4
0
CIRCLE
8
128
10
5.130000
20
-0.100000
40
0.030000
0
POLYLINE
8
0
66
1
40
0.016000
41
0.016000
0
VERTEX
8
0
10
5.300000
20
-0.100000
0
VERTEX
8
0
10
5.160000
20
-0.100000
0
SEQEND
8
0
0
TEXT
8
0
10
4.890000
20
-0.140000
40
0.080000
41
1.000000
1
QE
0
TEXT
8
0
10
5.200000
20
-0.090000
40
0.080000
41
1.000000
1
9
0
CIRCLE
8
128
10
4.270000
20
-0.200000
40
0.030000
0
POLYLINE
8
0
66
1
40
0.016000
41
0.016000
0
VERTEX
8
0
10
4.100000
20
-0.200000
0
VERTEX
8
0
10
4.240000
20
-0.200000
0
SEQEND
8
0
0
TEXT
8
0
10
4.350000
20
-0.240000
40
0.080000
41
1.000000
1
RBI
0
TEXT
8
0
10
4.120000
20
-0.190000
40
0.080000
41
1.000000
1
5
0
CIRCLE
8
128
10
5.130000
20
-0.200000
40
0.030000
0
POLYLINE
8
0
66
1
40
0.016000
41
0.016000
0
VERTEX
8
0
10
5.300000
20
-0.200000
0
VERTEX
8
0
10
5.160000
20
-0.200000
0
SEQEND
8
0
0
TEXT
8
0
10
4.890000
20
-0.240000
40
0.080000
41
1.000000
1
QF
0
TEXT
8
0
10
5.200000
20
-0.190000
40
0.080000
41
1.000000
1
15
0
CIRCLE
8
128
10
4.270000
20
-0.300000
40
0.030000
0
POLYLINE
8
0
66
1
40
0.016000
41
0.016000
0
VERTEX
8
0
10
4.100000
20
-0.300000
0
VERTEX
8
0
10
4.240000
20
-0.300000
0
SEQEND
8
0
0
TEXT
8
0
10
4.350000
20
-0.340000
40
0.080000
41
1.000000
1
LT
0
TEXT
8
0
10
4.120000
20
-0.290000
40
0.080000
41
1.000000
1
3
0
CIRCLE
8
128
10
5.130000
20
-0.300000
40
0.030000
0
POLYLINE
8
0
66
1
40
0.016000
41
0.016000
0
VERTEX
8
0
10
5.300000
20
-0.300000
0
VERTEX
8
0
10
5.160000
20
-0.300000
0
SEQEND
8
0
0
TEXT
8
0
10
4.890000
20
-0.340000
40
0.080000
41
1.000000
1
QG
0
TEXT
8
0
10
5.200000
20
-0.290000
40
0.080000
41
1.000000
1
14
0
TEXT
8
0
10
4.292000
20
0.423000
40
0.120000
41
0.666667
1
U3
0
TEXT
8
0
10
4.292000
20
-0.498000
40
0.080000
41
1.000000
1
74LS47
0
CIRCLE
8
16384
10
1.200000
20
-2.500000
40
0.020000
0
POLYLINE
8
0
66
1
40
0.016000
41
0.016000
0
VERTEX
8
0
10
2.700000
20
-1.900000
0
VERTEX
8
0
10
2.900000
20
-1.900000
0
VERTEX
8
0
10
2.800000
20
-1.800000
0
VERTEX
8
0
10
2.700000
20
-1.900000
0
SEQEND
8
0
0
POLYLINE
8
0
66
1
40
0.016000
41
0.016000
0
VERTEX
8
0
10
2.700000
20
-1.800000
0
VERTEX
8
0
10
2.900000
20
-1.800000
0
SEQEND
8
0
0
POLYLINE
8
0
66
1
40
0.016000
41
0.016000
0
VERTEX
8
0
10
2.800000
20
-2.000000
0
VERTEX
8
0
10
2.800000
20
-1.900000
0
SEQEND
8
0
0
POLYLINE
8
0
66
1
40
0.016000
41
0.016000
0
VERTEX
8
0
10
2.800000
20
-1.700000
0
VERTEX
8
0
10
2.800000
20
-1.800000
0
SEQEND
8
0
0
TEXT
8
0
10
2.958000
20
-1.927000
40
0.120000
41
0.666667
1
D5
0
TEXT
8
0
10
2.958000
20
-2.032000
40
0.080000
41
1.000000
1
1N4148
0
CIRCLE
8
128
10
4.400000
20
-2.800000
40
0.200000
0
POLYLINE
8
0
66
1
40
0.010000
41
0.010000
0
VERTEX
8
0
10
4.490000
20
-2.850000
0
VERTEX
8
0
10
4.486000
20
-2.861000
0
VERTEX
8
0
10
4.480000
20
-2.872000
0
VERTEX
8
0
10
4.473000
20
-2.882000
0
VERTEX
8
0
10
4.464000
20
-2.890000
0
VERTEX
8
0
10
4.452000
20
-2.896000
0
VERTEX
8
0
10
4.438000
20
-2.901000
0
VERTEX
8
0
10
4.421000
20
-2.902000
0
VERTEX
8
0
10
4.400000
20
-2.900000
0
SEQEND
8
0
0
POLYLINE
8
0
66
1
40
0.010000
41
0.010000
0
VERTEX
8
0
10
4.390000
20
-2.800000
0
VERTEX
8
0
10
4.391000
20
-2.807000
0
VERTEX
8
0
10
4.393000
20
-2.813000
0
VERTEX
8
0
10
4.401000
20
-2.822000
0
VERTEX
8
0
10
4.411000
20
-2.828000
0
VERTEX
8
0
10
4.420000
20
-2.830000
0
SEQEND
8
0
0
POLYLINE
8
0
66
1
40
0.010000
41
0.010000
0
VERTEX
8
0
10
4.490000
20
-2.750000
0
VERTEX
8
0
10
4.488000
20
-2.770000
0
VERTEX
8
0
10
4.482000
20
-2.786000
0
VERTEX
8
0
10
4.473000
20
-2.800000
0
VERTEX
8
0
10
4.462000
20
-2.811000
0
VERTEX
8
0
10
4.451000
20
-2.819000
0
VERTEX
8
0
10
4.439000
20
-2.825000
0
VERTEX
8
0
10
4.429000
20
-2.829000
0
VERTEX
8
0
10
4.420000
20
-2.830000
0
SEQEND
8
0
0
POLYLINE
8
0
66
1
40
0.010000
41
0.010000
0
VERTEX
8
0
10
4.490000
20
-2.750000
0
VERTEX
8
0
10
4.486000
20
-2.739000
0
VERTEX
8
0
10
4.480000
20
-2.728000
0
VERTEX
8
0
10
4.473000
20
-2.718000
0
VERTEX
8
0
10
4.464000
20
-2.710000
0
VERTEX
8
0
10
4.452000
20
-2.704000
0
VERTEX
8
0
10
4.438000
20
-2.699000
0
VERTEX
8
0
10
4.421000
20
-2.698000
0
VERTEX
8
0
10
4.400000
20
-2.700000
0
SEQEND
8
0
0
POLYLINE
8
0
66
1
40
0.010000
41
0.010000
0
VERTEX
8
0
10
4.390000
20
-2.800000
0
VERTEX
8
0
10
4.391000
20
-2.793000
0
VERTEX
8
0
10
4.393000
20
-2.787000
0
VERTEX
8
0
10
4.401000
20
-2.778000
0
VERTEX
8
0
10
4.411000
20
-2.772000
0
VERTEX
8
0
10
4.420000
20
-2.770000
0
SEQEND
8
0
0
POLYLINE
8
0
66
1
40
0.010000
41
0.010000
0
VERTEX
8
0
10
4.400000
20
-2.600000
0
VERTEX
8
0
10
4.400000
20
-2.700000
0
SEQEND
8
0
0
POLYLINE
8
0
66
1
40
0.010000
41
0.010000
0
VERTEX
8
0
10
4.400000
20
-2.900000
0
VERTEX
8
0
10
4.400000
20
-3.000000
0
SEQEND
8
0
0
POLYLINE
8
0
66
1
40
0.010000
41
0.010000
0
VERTEX
8
0
10
4.490000
20
-2.850000
0
VERTEX
8
0
10
4.488000
20
-2.830000
0
VERTEX
8
0
10
4.482000
20
-2.813000
0
VERTEX
8
0
10
4.473000
20
-2.800000
0
VERTEX
8
0
10
4.462000
20
-2.789000
0
VERTEX
8
0
10
4.451000
20
-2.780000
0
VERTEX
8
0
10
4.439000
20
-2.774000
0
VERTEX
8
0
10
4.429000
20
-2.771000
0
VERTEX
8
0
10
4.420000
20
-2.770000
0
SEQEND
8
0
0
POLYLINE
8
0
66
1
40
0.010000
41
0.010000
0
VERTEX
8
0
10
4.550000
20
-2.600000
0
VERTEX
8
0
10
4.590000
20
-2.540000
0
SEQEND
8
0
0
POLYLINE
8
0
66
1
40
0.010000
41
0.010000
0
VERTEX
8
0
10
4.630000
20
-2.700000
0
VERTEX
8
0
10
4.690000
20
-2.660000
0
SEQEND
8
0
0
POLYLINE
8
0
66
1
40
0.010000
41
0.010000
0
VERTEX
8
0
10
4.650000
20
-2.800000
0
VERTEX
8
0
10
4.720000
20
-2.800000
0
SEQEND
8
0
0
POLYLINE
8
0
66
1
40
0.010000
41
0.010000
0
VERTEX
8
0
10
4.630000
20
-2.900000
0
VERTEX
8
0
10
4.690000
20
-2.940000
0
SEQEND
8
0
0
POLYLINE
8
0
66
1
40
0.010000
41
0.010000
0
VERTEX
8
0
10
4.550000
20
-3.000000
0
VERTEX
8
0
10
4.590000
20
-3.060000
0
SEQEND
8
0
0
POLYLINE
8
0
66
1
40
0.016000
41
0.016000
0
VERTEX
8
0
10
4.400000
20
-2.500000
0
VERTEX
8
0
10
4.400000
20
-2.600000
0
SEQEND
8
0
0
POLYLINE
8
0
66
1
40
0.016000
41
0.016000
0
VERTEX
8
0
10
4.400000
20
-3.100000
0
VERTEX
8
0
10
4.400000
20
-3.000000
0
SEQEND
8
0
0
TEXT
8
0
10
4.775000
20
-2.670000
40
0.120000
41
0.666667
1
L1
0
TEXT
8
0
10
4.775000
20
-2.775000
40
0.080000
41
1.000000
1
220V
0
POLYLINE
8
0
66
1
40
0.008000
41
0.008000
0
VERTEX
8
0
10
3.750000
20
-1.350000
0
VERTEX
8
0
10
3.650000
20
-1.300000
0
VERTEX
8
0
10
3.700000
20
-1.250000
0
VERTEX
8
0
10
3.750000
20
-1.350000
0
SEQEND
8
0
0
POLYLINE
8
0
66
1
40
0.008000
41
0.008000
0
VERTEX
8
0
10
3.800000
20
-1.310000
0
VERTEX
8
0
10
3.801000
20
-1.302000
0
VERTEX
8
0
10
3.804000
20
-1.294000
0
VERTEX
8
0
10
3.808000
20
-1.285000
0
VERTEX
8
0
10
3.814000
20
-1.278000
0
VERTEX
8
0
10
3.821000
20
-1.271000
0
VERTEX
8
0
10
3.830000
20
-1.265000
0
VERTEX
8
0
10
3.839000
20
-1.261000
0
VERTEX
8
0
10
3.850000
20
-1.260000
0
SEQEND
8
0
0
POLYLINE
8
0
66
1
40
0.008000
41
0.008000
0
VERTEX
8
0
10
3.900000
20
-1.310000
0
VERTEX
8
0
10
3.899000
20
-1.302000
0
VERTEX
8
0
10
3.895000
20
-1.294000
0
VERTEX
8
0
10
3.882000
20
-1.278000
0
VERTEX
8
0
10
3.874000
20
-1.271000
0
VERTEX
8
0
10
3.866000
20
-1.265000
0
VERTEX
8
0
10
3.858000
20
-1.261000
0
VERTEX
8
0
10
3.850000
20
-1.260000
0
SEQEND
8
0
0
POLYLINE
8
0
66
1
40
0.008000
41
0.008000
0
VERTEX
8
0
10
3.900000
20
-1.310000
0
VERTEX
8
0
10
3.901000
20
-1.321000
0
VERTEX
8
0
10
3.904000
20
-1.330000
0
VERTEX
8
0
10
3.908000
20
-1.339000
0
VERTEX
8
0
10
3.914000
20
-1.346000
0
VERTEX
8
0
10
3.921000
20
-1.352000
0
VERTEX
8
0
10
3.930000
20
-1.356000
0
VERTEX
8
0
10
3.939000
20
-1.359000
0
VERTEX
8
0
10
3.950000
20
-1.360000
0
SEQEND
8
0
0
POLYLINE
8
0
66
1
40
0.008000
41
0.008000
0
VERTEX
8
0
10
4.000000
20
-1.310000
0
VERTEX
8
0
10
3.999000
20
-1.321000
0
VERTEX
8
0
10
3.995000
20
-1.330000
0
VERTEX
8
0
10
3.989000
20
-1.339000
0
VERTEX
8
0
10
3.982000
20
-1.346000
0
VERTEX
8
0
10
3.974000
20
-1.352000
0
VERTEX
8
0
10
3.966000
20
-1.356000
0
VERTEX
8
0
10
3.958000
20
-1.359000
0
VERTEX
8
0
10
3.950000
20
-1.360000
0
SEQEND
8
0
0
POLYLINE
8
0
66
1
40
0.008000
41
0.008000
0
VERTEX
8
0
10
3.800000
20
-1.400000
0
VERTEX
8
0
10
3.750000
20
-1.350000
0
SEQEND
8
0
0
TEXT
8
12582912
10
3.060000
20
-1.290000
40
0.080000
41
1.000000
1
RL1(NO)
0
CIRCLE
8
16384
10
4.300000
20
2.000000
40
0.020000
0
POLYLINE
8
0
66
1
40
0.016000
41
0.016000
0
VERTEX
8
0
10
3.900000
20
-2.100000
0
VERTEX
8
0
10
4.500000
20
-2.100000
0
VERTEX
8
0
10
4.500000
20
-1.600000
0
VERTEX
8
0
10
3.900000
20
-1.600000
0
VERTEX
8
0
10
3.900000
20
-2.100000
0
SEQEND
8
0
0
POLYLINE
8
0
66
1
40
0.020000
41
0.020000
0
VERTEX
8
0
10
4.310000
20
-1.980000
0
VERTEX
8
0
10
4.400000
20
-1.700000
0
SEQEND
8
0
0
CIRCLE
8
128
10
4.300000
20
-2.010000
40
0.020000
0
CIRCLE
8
128
10
4.200000
20
-1.670000
40
0.020000
0
POLYLINE
8
0
66
1
40
0.016000
41
0.016000
0
VERTEX
8
0
10
4.200000
20
-1.650000
0
VERTEX
8
0
10
4.200000
20
-1.600000
0
SEQEND
8
0
0
POLYLINE
8
0
66
1
40
0.016000
41
0.016000
0
VERTEX
8
0
10
4.300000
20
-2.100000
0
VERTEX
8
0
10
4.300000
20
-2.030000
0
SEQEND
8
0
0
POLYLINE
8
0
66
1
40
0.016000
41
0.016000
0
VERTEX
8
0
10
4.000000
20
-1.750000
0
VERTEX
8
0
10
3.998000
20
-1.739000
0
VERTEX
8
0
10
3.991000
20
-1.730000
0
VERTEX
8
0
10
3.982000
20
-1.721000
0
VERTEX
8
0
10
3.969000
20
-1.714000
0
VERTEX
8
0
10
3.954000
20
-1.708000
0
VERTEX
8
0
10
3.937000
20
-1.704000
0
VERTEX
8
0
10
3.919000
20
-1.701000
0
VERTEX
8
0
10
3.900000
20
-1.700000
0
SEQEND
8
0
0
POLYLINE
8
0
66
1
40
0.016000
41
0.016000
0
VERTEX
8
0
10
4.000000
20
-1.750000
0
VERTEX
8
0
10
3.998000
20
-1.758000
0
VERTEX
8
0
10
3.991000
20
-1.766000
0
VERTEX
8
0
10
3.982000
20
-1.775000
0
VERTEX
8
0
10
3.969000
20
-1.782000
0
VERTEX
8
0
10
3.954000
20
-1.789000
0
VERTEX
8
0
10
3.937000
20
-1.795000
0
VERTEX
8
0
10
3.919000
20
-1.799000
0
VERTEX
8
0
10
3.900000
20
-1.800000
0
SEQEND
8
0
0
POLYLINE
8
0
66
1
40
0.016000
41
0.016000
0
VERTEX
8
0
10
4.000000
20
-1.850000
0
VERTEX
8
0
10
3.998000
20
-1.839000
0
VERTEX
8
0
10
3.991000
20
-1.830000
0
VERTEX
8
0
10
3.982000
20
-1.821000
0
VERTEX
8
0
10
3.969000
20
-1.814000
0
VERTEX
8
0
10
3.954000
20
-1.808000
0
VERTEX
8
0
10
3.937000
20
-1.804000
0
VERTEX
8
0
10
3.919000
20
-1.801000
0
VERTEX
8
0
10
3.900000
20
-1.800000
0
SEQEND
8
0
0
POLYLINE
8
0
66
1
40
0.016000
41
0.016000
0
VERTEX
8
0
10
4.000000
20
-1.850000
0
VERTEX
8
0
10
3.998000
20
-1.858000
0
VERTEX
8
0
10
3.991000
20
-1.866000
0
VERTEX
8
0
10
3.982000
20
-1.875000
0
VERTEX
8
0
10
3.969000
20
-1.882000
0
VERTEX
8
0
10
3.954000
20
-1.889000
0
VERTEX
8
0
10
3.937000
20
-1.895000
0
VERTEX
8
0
10
3.919000
20
-1.899000
0
VERTEX
8
0
10
3.900000
20
-1.900000
0
SEQEND
8
0
0
POLYLINE
8
0
66
1
40
0.016000
41
0.016000
0
VERTEX
8
0
10
4.000000
20
-1.950000
0
VERTEX
8
0
10
3.998000
20
-1.939000
0
VERTEX
8
0
10
3.991000
20
-1.930000
0
VERTEX
8
0
10
3.982000
20
-1.921000
0
VERTEX
8
0
10
3.969000
20
-1.914000
0
VERTEX
8
0
10
3.954000
20
-1.908000
0
VERTEX
8
0
10
3.937000
20
-1.904000
0
VERTEX
8
0
10
3.919000
20
-1.901000
0
VERTEX
8
0
10
3.900000
20
-1.900000
0
SEQEND
8
0
0
POLYLINE
8
0
66
1
40
0.016000
41
0.016000
0
VERTEX
8
0
10
4.000000
20
-1.950000
0
VERTEX
8
0
10
3.998000
20
-1.958000
0
VERTEX
8
0
10
3.991000
20
-1.966000
0
VERTEX
8
0
10
3.982000
20
-1.975000
0
VERTEX
8
0
10
3.969000
20
-1.982000
0
VERTEX
8
0
10
3.954000
20
-1.989000
0
VERTEX
8
0
10
3.937000
20
-1.995000
0
VERTEX
8
0
10
3.919000
20
-1.999000
0
VERTEX
8
0
10
3.900000
20
-2.000000
0
SEQEND
8
0
0
POLYLINE
8
0
66
1
40
0.016000
41
0.016000
0
VERTEX
8
0
10
4.050000
20
-1.650000
0
VERTEX
8
0
10
4.050000
20
-2.050000
0
SEQEND
8
0
0
POLYLINE
8
0
66
1
40
0.016000
41
0.016000
0
VERTEX
8
0
10
4.100000
20
-1.650000
0
VERTEX
8
0
10
4.100000
20
-2.050000
0
SEQEND
8
0
0
CIRCLE
8
128
10
4.400000
20
-1.670000
40
0.020000
0
POLYLINE
8
0
66
1
40
0.016000
41
0.016000
0
VERTEX
8
0
10
4.400000
20
-1.650000
0
VERTEX
8
0
10
4.400000
20
-1.600000
0
SEQEND
8
0
0
POLYLINE
8
0
66
1
40
0.016000
41
0.016000
0
VERTEX
8
0
10
4.300000
20
-2.200000
0
VERTEX
8
0
10
4.300000
20
-2.100000
0
SEQEND
8
0
0
POLYLINE
8
0
66
1
40
0.016000
41
0.016000
0
VERTEX
8
0
10
4.200000
20
-1.500000
0
VERTEX
8
0
10
4.200000
20
-1.600000
0
SEQEND
8
0
0
POLYLINE
8
0
66
1
40
0.016000
41
0.016000
0
VERTEX
8
0
10
3.800000
20
-1.700000
0
VERTEX
8
0
10
3.900000
20
-1.700000
0
SEQEND
8
0
0
POLYLINE
8
0
66
1
40
0.016000
41
0.016000
0
VERTEX
8
0
10
3.800000
20
-2.000000
0
VERTEX
8
0
10
3.900000
20
-2.000000
0
SEQEND
8
0
0
POLYLINE
8
0
66
1
40
0.016000
41
0.016000
0
VERTEX
8
0
10
4.400000
20
-1.500000
0
VERTEX
8
0
10
4.400000
20
-1.600000
0
SEQEND
8
0
0
TEXT
8
0
10
4.558000
20
-1.727000
40
0.120000
41
0.666667
1
RL1
0
TEXT
8
0
10
4.558000
20
-1.832000
40
0.080000
41
1.000000
1
RTB14050F
0
CIRCLE
8
16384
10
3.200000
20
-1.600000
40
0.020000
0
POLYLINE
8
0
66
1
40
0.016000
41
0.016000
0
VERTEX
8
0
10
3.500000
20
-2.800000
0
VERTEX
8
0
10
3.400000
20
-2.750000
0
VERTEX
8
0
10
3.450000
20
-2.700000
0
VERTEX
8
0
10
3.500000
20
-2.800000
0
SEQEND
8
0
0
POLYLINE
8
0
66
1
40
0.016000
41
0.016000
0
VERTEX
8
0
10
3.300000
20
-2.750000
0
VERTEX
8
0
10
3.350000
20
-2.750000
0
VERTEX
8
0
10
3.350000
20
-2.450000
0
VERTEX
8
0
10
3.300000
20
-2.450000
0
VERTEX
8
0
10
3.300000
20
-2.750000
0
SEQEND
8
0
0
POLYLINE
8
0
66
1
40
0.016000
41
0.016000
0
VERTEX
8
0
10
3.350000
20
-2.550000
0
VERTEX
8
0
10
3.500000
20
-2.400000
0
SEQEND
8
0
0
POLYLINE
8
0
66
1
40
0.016000
41
0.016000
0
VERTEX
8
0
10
3.350000
20
-2.650000
0
VERTEX
8
0
10
3.420000
20
-2.720000
0
SEQEND
8
0
0
POLYLINE
8
0
66
1
40
0.016000
41
0.016000
0
VERTEX
8
0
10
3.200000
20
-2.600000
0
VERTEX
8
0
10
3.300000
20
-2.600000
0
SEQEND
8
0
0
POLYLINE
8
0
66
1
40
0.016000
41
0.016000
0
VERTEX
8
0
10
3.100000
20
-2.600000
0
VERTEX
8
0
10
3.200000
20
-2.600000
0
SEQEND
8
0
0
POLYLINE
8
0
66
1
40
0.016000
41
0.016000
0
VERTEX
8
0
10
3.500000
20
-2.300000
0
VERTEX
8
0
10
3.500000
20
-2.400000
0
SEQEND
8
0
0
POLYLINE
8
0
66
1
40
0.016000
41
0.016000
0
VERTEX
8
0
10
3.500000
20
-2.900000
0
VERTEX
8
0
10
3.500000
20
-2.800000
0
SEQEND
8
0
0
TEXT
8
0
10
3.558000
20
-2.527000
40
0.120000
41
0.666667
1
Q1
0
TEXT
8
0
10
3.558000
20
-2.632000
40
0.080000
41
1.000000
1
2N3904
0
POLYLINE
8
0
66
1
40
0.016000
41
0.016000
0
VERTEX
8
0
10
2.000000
20
-2.540000
0
VERTEX
8
0
10
2.300000
20
-2.540000
0
VERTEX
8
0
10
2.300000
20
-2.460000
0
VERTEX
8
0
10
2.000000
20
-2.460000
0
VERTEX
8
0
10
2.000000
20
-2.540000
0
SEQEND
8
0
0
POLYLINE
8
0
66
1
40
0.016000
41
0.016000
0
VERTEX
8
0
10
1.900000
20
-2.500000
0
VERTEX
8
0
10
2.000000
20
-2.500000
0
SEQEND
8
0
0
POLYLINE
8
0
66
1
40
0.016000
41
0.016000
0
VERTEX
8
0
10
2.400000
20
-2.500000
0
VERTEX
8
0
10
2.300000
20
-2.500000
0
SEQEND
8
0
0
TEXT
8
0
10
1.992000
20
-2.437000
40
0.120000
41
0.666667
1
R9
0
TEXT
8
0
10
1.992000
20
-2.638000
40
0.080000
41
1.000000
1
1k
0
CIRCLE
8
16384
10
3.500000
20
-2.100000
40
0.020000
0
CIRCLE
8
16384
10
3.500000
20
-3.200000
40
0.020000
0
POLYLINE
8
0
66
1
40
0.016000
41
0.016000
0
VERTEX
8
0
10
2.100000
20
0.360000
0
VERTEX
8
0
10
2.400000
20
0.360000
0
VERTEX
8
0
10
2.400000
20
0.440000
0
VERTEX
8
0
10
2.100000
20
0.440000
0
VERTEX
8
0
10
2.100000
20
0.360000
0
SEQEND
8
0
0
POLYLINE
8
0
66
1
40
0.016000
41
0.016000
0
VERTEX
8
0
10
2.000000
20
0.400000
0
VERTEX
8
0
10
2.100000
20
0.400000
0
SEQEND
8
0
0
POLYLINE
8
0
66
1
40
0.016000
41
0.016000
0
VERTEX
8
0
10
2.500000
20
0.400000
0
VERTEX
8
0
10
2.400000
20
0.400000
0
SEQEND
8
0
0
TEXT
8
0
10
2.092000
20
0.463000
40
0.120000
41
0.666667
1
R10
0
TEXT
8
0
10
2.092000
20
0.262000
40
0.080000
41
1.000000
1
220R
0
POLYLINE
8
0
66
1
40
0.016000
41
0.016000
0
VERTEX
8
0
10
2.100000
20
0.260000
0
VERTEX
8
0
10
2.400000
20
0.260000
0
VERTEX
8
0
10
2.400000
20
0.340000
0
VERTEX
8
0
10
2.100000
20
0.340000
0
VERTEX
8
0
10
2.100000
20
0.260000
0
SEQEND
8
0
0
POLYLINE
8
0
66
1
40
0.016000
41
0.016000
0
VERTEX
8
0
10
2.000000
20
0.300000
0
VERTEX
8
0
10
2.100000
20
0.300000
0
SEQEND
8
0
0
POLYLINE
8
0
66
1
40
0.016000
41
0.016000
0
VERTEX
8
0
10
2.500000
20
0.300000
0
VERTEX
8
0
10
2.400000
20
0.300000
0
SEQEND
8
0
0
TEXT
8
0
10
2.092000
20
0.363000
40
0.120000
41
0.666667
1
R11
0
TEXT
8
0
10
2.092000
20
0.162000
40
0.080000
41
1.000000
1
220R
0
POLYLINE
8
0
66
1
40
0.016000
41
0.016000
0
VERTEX
8
0
10
2.100000
20
0.160000
0
VERTEX
8
0
10
2.400000
20
0.160000
0
VERTEX
8
0
10
2.400000
20
0.240000
0
VERTEX
8
0
10
2.100000
20
0.240000
0
VERTEX
8
0
10
2.100000
20
0.160000
0
SEQEND
8
0
0
POLYLINE
8
0
66
1
40
0.016000
41
0.016000
0
VERTEX
8
0
10
2.000000
20
0.200000
0
VERTEX
8
0
10
2.100000
20
0.200000
0
SEQEND
8
0
0
POLYLINE
8
0
66
1
40
0.016000
41
0.016000
0
VERTEX
8
0
10
2.500000
20
0.200000
0
VERTEX
8
0
10
2.400000
20
0.200000
0
SEQEND
8
0
0
TEXT
8
0
10
2.092000
20
0.263000
40
0.120000
41
0.666667
1
R12
0
TEXT
8
0
10
2.092000
20
0.062000
40
0.080000
41
1.000000
1
220R
0
POLYLINE
8
0
66
1
40
0.016000
41
0.016000
0
VERTEX
8
0
10
2.100000
20
0.060000
0
VERTEX
8
0
10
2.400000
20
0.060000
0
VERTEX
8
0
10
2.400000
20
0.140000
0
VERTEX
8
0
10
2.100000
20
0.140000
0
VERTEX
8
0
10
2.100000
20
0.060000
0
SEQEND
8
0
0
POLYLINE
8
0
66
1
40
0.016000
41
0.016000
0
VERTEX
8
0
10
2.000000
20
0.100000
0
VERTEX
8
0
10
2.100000
20
0.100000
0
SEQEND
8
0
0
POLYLINE
8
0
66
1
40
0.016000
41
0.016000
0
VERTEX
8
0
10
2.500000
20
0.100000
0
VERTEX
8
0
10
2.400000
20
0.100000
0
SEQEND
8
0
0
TEXT
8
0
10
2.092000
20
0.163000
40
0.120000
41
0.666667
1
R13
0
TEXT
8
0
10
2.092000
20
-0.038000
40
0.080000
41
1.000000
1
220R
0
POLYLINE
8
0
66
1
40
0.016000
41
0.016000
0
VERTEX
8
0
10
2.100000
20
-0.040000
0
VERTEX
8
0
10
2.400000
20
-0.040000
0
VERTEX
8
0
10
2.400000
20
0.040000
0
VERTEX
8
0
10
2.100000
20
0.040000
0
VERTEX
8
0
10
2.100000
20
-0.040000
0
SEQEND
8
0
0
POLYLINE
8
0
66
1
40
0.016000
41
0.016000
0
VERTEX
8
0
10
2.000000
20
0.000000
0
VERTEX
8
0
10
2.100000
20
0.000000
0
SEQEND
8
0
0
POLYLINE
8
0
66
1
40
0.016000
41
0.016000
0
VERTEX
8
0
10
2.500000
20
0.000000
0
VERTEX
8
0
10
2.400000
20
0.000000
0
SEQEND
8
0
0
TEXT
8
0
10
2.092000
20
0.063000
40
0.120000
41
0.666667
1
R14
0
TEXT
8
0
10
2.092000
20
-0.138000
40
0.080000
41
1.000000
1
220R
0
POLYLINE
8
0
66
1
40
0.016000
41
0.016000
0
VERTEX
8
0
10
2.100000
20
-0.140000
0
VERTEX
8
0
10
2.400000
20
-0.140000
0
VERTEX
8
0
10
2.400000
20
-0.060000
0
VERTEX
8
0
10
2.100000
20
-0.060000
0
VERTEX
8
0
10
2.100000
20
-0.140000
0
SEQEND
8
0
0
POLYLINE
8
0
66
1
40
0.016000
41
0.016000
0
VERTEX
8
0
10
2.000000
20
-0.100000
0
VERTEX
8
0
10
2.100000
20
-0.100000
0
SEQEND
8
0
0
POLYLINE
8
0
66
1
40
0.016000
41
0.016000
0
VERTEX
8
0
10
2.500000
20
-0.100000
0
VERTEX
8
0
10
2.400000
20
-0.100000
0
SEQEND
8
0
0
TEXT
8
0
10
2.092000
20
-0.037000
40
0.120000
41
0.666667
1
R15
0
TEXT
8
0
10
2.092000
20
-0.238000
40
0.080000
41
1.000000
1
220R
0
POLYLINE
8
0
66
1
40
0.016000
41
0.016000
0
VERTEX
8
0
10
2.100000
20
-0.240000
0
VERTEX
8
0
10
2.400000
20
-0.240000
0
VERTEX
8
0
10
2.400000
20
-0.160000
0
VERTEX
8
0
10
2.100000
20
-0.160000
0
VERTEX
8
0
10
2.100000
20
-0.240000
0
SEQEND
8
0
0
POLYLINE
8
0
66
1
40
0.016000
41
0.016000
0
VERTEX
8
0
10
2.000000
20
-0.200000
0
VERTEX
8
0
10
2.100000
20
-0.200000
0
SEQEND
8
0
0
POLYLINE
8
0
66
1
40
0.016000
41
0.016000
0
VERTEX
8
0
10
2.500000
20
-0.200000
0
VERTEX
8
0
10
2.400000
20
-0.200000
0
SEQEND
8
0
0
TEXT
8
0
10
2.092000
20
-0.137000
40
0.120000
41
0.666667
1
R16
0
TEXT
8
0
10
2.092000
20
-0.338000
40
0.080000
41
1.000000
1
220R
0
POLYLINE
8
0
66
1
40
0.016000
41
0.016000
0
VERTEX
8
0
10
2.700000
20
-0.350000
0
VERTEX
8
0
10
3.350000
20
-0.350000
0
VERTEX
8
0
10
3.350000
20
0.600000
0
VERTEX
8
0
10
2.700000
20
0.600000
0
VERTEX
8
0
10
2.700000
20
-0.350000
0
SEQEND
8
0
0
POLYLINE
8
0
66
1
40
0.000000
41
0.000000
0
VERTEX
8
0
10
2.870000
20
0.470000
0
VERTEX
8
0
10
2.900000
20
0.500000
0
VERTEX
8
0
10
3.170000
20
0.500000
0
VERTEX
8
0
10
3.200000
20
0.470000
0
VERTEX
8
0
10
3.170000
20
0.440000
0
VERTEX
8
0
10
2.900000
20
0.440000
0
VERTEX
8
0
10
2.870000
20
0.470000
0
SEQEND
8
0
0
POLYLINE
8
0
66
1
40
0.000000
41
0.000000
0
VERTEX
8
0
10
3.180000
20
0.430000
0
VERTEX
8
0
10
3.210000
20
0.460000
0
VERTEX
8
0
10
3.240000
20
0.430000
0
VERTEX
8
0
10
3.230000
20
0.170000
0
VERTEX
8
0
10
3.200000
20
0.140000
0
VERTEX
8
0
10
3.170000
20
0.170000
0
VERTEX
8
0
10
3.180000
20
0.430000
0
SEQEND
8
0
0
POLYLINE
8
0
66
1
40
0.000000
41
0.000000
0
VERTEX
8
0
10
2.860000
20
0.130000
0
VERTEX
8
0
10
2.890000
20
0.160000
0
VERTEX
8
0
10
3.160000
20
0.160000
0
VERTEX
8
0
10
3.190000
20
0.130000
0
VERTEX
8
0
10
3.160000
20
0.100000
0
VERTEX
8
0
10
2.890000
20
0.100000
0
VERTEX
8
0
10
2.860000
20
0.130000
0
SEQEND
8
0
0
POLYLINE
8
0
66
1
40
0.000000
41
0.000000
0
VERTEX
8
0
10
2.830000
20
0.430000
0
VERTEX
8
0
10
2.860000
20
0.460000
0
VERTEX
8
0
10
2.890000
20
0.430000
0
VERTEX
8
0
10
2.880000
20
0.170000
0
VERTEX
8
0
10
2.850000
20
0.140000
0
VERTEX
8
0
10
2.820000
20
0.170000
0
VERTEX
8
0
10
2.830000
20
0.430000
0
SEQEND
8
0
0
POLYLINE
8
0
66
1
40
0.000000
41
0.000000
0
VERTEX
8
0
10
3.170000
20
0.090000
0
VERTEX
8
0
10
3.200000
20
0.120000
0
VERTEX
8
0
10
3.230000
20
0.090000
0
VERTEX
8
0
10
3.220000
20
-0.170000
0
VERTEX
8
0
10
3.190000
20
-0.200000
0
VERTEX
8
0
10
3.160000
20
-0.170000
0
VERTEX
8
0
10
3.170000
20
0.090000
0
SEQEND
8
0
0
POLYLINE
8
0
66
1
40
0.000000
41
0.000000
0
VERTEX
8
0
10
2.850000
20
-0.210000
0
VERTEX
8
0
10
2.880000
20
-0.180000
0
VERTEX
8
0
10
3.150000
20
-0.180000
0
VERTEX
8
0
10
3.180000
20
-0.210000
0
VERTEX
8
0
10
3.150000
20
-0.240000
0
VERTEX
8
0
10
2.880000
20
-0.240000
0
VERTEX
8
0
10
2.850000
20
-0.210000
0
SEQEND
8
0
0
POLYLINE
8
0
66
1
40
0.000000
41
0.000000
0
VERTEX
8
0
10
2.820000
20
0.090000
0
VERTEX
8
0
10
2.850000
20
0.120000
0
VERTEX
8
0
10
2.880000
20
0.090000
0
VERTEX
8
0
10
2.870000
20
-0.170000
0
VERTEX
8
0
10
2.840000
20
-0.200000
0
VERTEX
8
0
10
2.810000
20
-0.170000
0
VERTEX
8
0
10
2.820000
20
0.090000
0
SEQEND
8
0
0
POLYLINE
8
0
66
1
40
0.016000
41
0.016000
0
VERTEX
8
0
10
2.600000
20
0.400000
0
VERTEX
8
0
10
2.700000
20
0.400000
0
SEQEND
8
0
0
POLYLINE
8
0
66
1
40
0.016000
41
0.016000
0
VERTEX
8
0
10
2.600000
20
0.300000
0
VERTEX
8
0
10
2.700000
20
0.300000
0
SEQEND
8
0
0
POLYLINE
8
0
66
1
40
0.016000
41
0.016000
0
VERTEX
8
0
10
2.600000
20
0.200000
0
VERTEX
8
0
10
2.700000
20
0.200000
0
SEQEND
8
0
0
POLYLINE
8
0
66
1
40
0.016000
41
0.016000
0
VERTEX
8
0
10
2.600000
20
0.100000
0
VERTEX
8
0
10
2.700000
20
0.100000
0
SEQEND
8
0
0
POLYLINE
8
0
66
1
40
0.016000
41
0.016000
0
VERTEX
8
0
10
2.600000
20
0.000000
0
VERTEX
8
0
10
2.700000
20
0.000000
0
SEQEND
8
0
0
POLYLINE
8
0
66
1
40
0.016000
41
0.016000
0
VERTEX
8
0
10
2.600000
20
-0.100000
0
VERTEX
8
0
10
2.700000
20
-0.100000
0
SEQEND
8
0
0
POLYLINE
8
0
66
1
40
0.016000
41
0.016000
0
VERTEX
8
0
10
2.600000
20
-0.200000
0
VERTEX
8
0
10
2.700000
20
-0.200000
0
SEQEND
8
0
0
POLYLINE
8
0
66
1
40
0.016000
41
0.016000
0
VERTEX
8
0
10
3.300000
20
0.700000
0
VERTEX
8
0
10
3.300000
20
0.600000
0
SEQEND
8
0
0
CIRCLE
8
16384
10
4.300000
20
1.800000
40
0.020000
0
CIRCLE
8
16384
10
2.900000
20
0.700000
40
0.020000
0
CIRCLE
8
16384
10
4.400000
20
-2.400000
40
0.020000
0
POLYLINE
8
0
66
1
40
0.016000
41
0.016000
0
VERTEX
8
0
10
-2.600000
20
-0.800000
0
VERTEX
8
0
10
-0.400000
20
-0.800000
0
VERTEX
8
0
10
-0.400000
20
0.900000
0
VERTEX
8
0
10
-2.600000
20
0.900000
0
VERTEX
8
0
10
-2.600000
20
-0.800000
0
SEQEND
8
0
0
POLYLINE
8
0
66
1
40
0.016000
41
0.016000
0
VERTEX
8
0
10
-0.200000
20
0.800000
0
VERTEX
8
0
10
-0.400000
20
0.800000
0
SEQEND
8
0
0
TEXT
8
0
10
-2.050000
20
0.760000
40
0.080000
41
1.000000
1
PB0/ICP1/CLKO/PCINT0
0
TEXT
8
0
10
-0.300000
20
0.810000
40
0.080000
41
1.000000
1
14
0
POLYLINE
8
0
66
1
40
0.016000
41
0.016000
0
VERTEX
8
0
10
-0.200000
20
0.700000
0
VERTEX
8
0
10
-0.400000
20
0.700000
0
SEQEND
8
0
0
TEXT
8
0
10
-1.650000
20
0.660000
40
0.080000
41
1.000000
1
PB1/OC1A/PCINT1
0
TEXT
8
0
10
-0.300000
20
0.710000
40
0.080000
41
1.000000
1
15
0
POLYLINE
8
0
66
1
40
0.016000
41
0.016000
0
VERTEX
8
0
10
-0.200000
20
0.500000
0
VERTEX
8
0
10
-0.400000
20
0.500000
0
SEQEND
8
0
0
TEXT
8
0
10
-2.050000
20
0.460000
40
0.080000
41
1.000000
1
PB3/MOSI/OC2A/PCINT3
0
TEXT
8
0
10
-0.300000
20
0.510000
40
0.080000
41
1.000000
1
17
0
POLYLINE
8
0
66
1
40
0.016000
41
0.016000
0
VERTEX
8
0
10
-0.200000
20
0.600000
0
VERTEX
8
0
10
-0.400000
20
0.600000
0
SEQEND
8
0
0
TEXT
8
0
10
-1.890000
20
0.560000
40
0.080000
41
1.000000
1
PB2/SS/OC1B/PCINT2
0
TEXT
8
0
10
-0.300000
20
0.610000
40
0.080000
41
1.000000
1
16
0
POLYLINE
8
0
66
1
40
0.016000
41
0.016000
0
VERTEX
8
0
10
-2.800000
20
0.200000
0
VERTEX
8
0
10
-2.600000
20
0.200000
0
SEQEND
8
0
0
TEXT
8
0
10
-2.550000
20
0.160000
40
0.080000
41
1.000000
1
PD6/AIN0/OC0A/PCINT22
0
TEXT
8
0
10
-2.860000
20
0.210000
40
0.080000
41
1.000000
1
12
0
POLYLINE
8
0
66
1
40
0.016000
41
0.016000
0
VERTEX
8
0
10
-2.800000
20
0.300000
0
VERTEX
8
0
10
-2.600000
20
0.300000
0
SEQEND
8
0
0
TEXT
8
0
10
-2.550000
20
0.260000
40
0.080000
41
1.000000
1
PD5/T1/OC0B/PCINT21
0
TEXT
8
0
10
-2.860000
20
0.310000
40
0.080000
41
1.000000
1
11
0
POLYLINE
8
0
66
1
40
0.016000
41
0.016000
0
VERTEX
8
0
10
-2.800000
20
0.400000
0
VERTEX
8
0
10
-2.600000
20
0.400000
0
SEQEND
8
0
0
TEXT
8
0
10
-2.550000
20
0.360000
40
0.080000
41
1.000000
1
PD4/T0/XCK/PCINT20
0
TEXT
8
0
10
-2.780000
20
0.410000
40
0.080000
41
1.000000
1
6
0
POLYLINE
8
0
66
1
40
0.016000
41
0.016000
0
VERTEX
8
0
10
-2.800000
20
0.500000
0
VERTEX
8
0
10
-2.600000
20
0.500000
0
SEQEND
8
0
0
TEXT
8
0
10
-2.550000
20
0.460000
40
0.080000
41
1.000000
1
PD3/INT1/OC2B/PCINT19
0
TEXT
8
0
10
-2.780000
20
0.510000
40
0.080000
41
1.000000
1
5
0
POLYLINE
8
0
66
1
40
0.016000
41
0.016000
0
VERTEX
8
0
10
-2.800000
20
0.600000
0
VERTEX
8
0
10
-2.600000
20
0.600000
0
SEQEND
8
0
0
TEXT
8
0
10
-2.550000
20
0.560000
40
0.080000
41
1.000000
1
PD2/INT0/PCINT18
0
TEXT
8
0
10
-2.780000
20
0.610000
40
0.080000
41
1.000000
1
4
0
POLYLINE
8
0
66
1
40
0.016000
41
0.016000
0
VERTEX
8
0
10
-2.800000
20
0.700000
0
VERTEX
8
0
10
-2.600000
20
0.700000
0
SEQEND
8
0
0
TEXT
8
0
10
-2.550000
20
0.660000
40
0.080000
41
1.000000
1
PD1/TXD/PCINT17
0
TEXT
8
0
10
-2.780000
20
0.710000
40
0.080000
41
1.000000
1
3
0
POLYLINE
8
0
66
1
40
0.016000
41
0.016000
0
VERTEX
8
0
10
-2.800000
20
0.800000
0
VERTEX
8
0
10
-2.600000
20
0.800000
0
SEQEND
8
0
0
TEXT
8
0
10
-2.550000
20
0.760000
40
0.080000
41
1.000000
1
PD0/RXD/PCINT16
0
TEXT
8
0
10
-2.780000
20
0.810000
40
0.080000
41
1.000000
1
2
0
POLYLINE
8
0
66
1
40
0.016000
41
0.016000
0
VERTEX
8
0
10
-0.200000
20
0.400000
0
VERTEX
8
0
10
-0.400000
20
0.400000
0
SEQEND
8
0
0
TEXT
8
0
10
-1.650000
20
0.360000
40
0.080000
41
1.000000
1
PB4/MISO/PCINT4
0
TEXT
8
0
10
-0.300000
20
0.410000
40
0.080000
41
1.000000
1
18
0
POLYLINE
8
0
66
1
40
0.016000
41
0.016000
0
VERTEX
8
0
10
-0.200000
20
0.300000
0
VERTEX
8
0
10
-0.400000
20
0.300000
0
SEQEND
8
0
0
TEXT
8
0
10
-1.570000
20
0.260000
40
0.080000
41
1.000000
1
PB5/SCK/PCINT5
0
TEXT
8
0
10
-0.300000
20
0.310000
40
0.080000
41
1.000000
1
19
0
POLYLINE
8
0
66
1
40
0.016000
41
0.016000
0
VERTEX
8
0
10
-0.200000
20
0.100000
0
VERTEX
8
0
10
-0.400000
20
0.100000
0
SEQEND
8
0
0
TEXT
8
0
10
-2.210000
20
0.060000
40
0.080000
41
1.000000
1
PB7/TOSC2/XTAL2/PCINT7
0
TEXT
8
0
10
-0.300000
20
0.110000
40
0.080000
41
1.000000
1
10
0
POLYLINE
8
0
66
1
40
0.016000
41
0.016000
0
VERTEX
8
0
10
-0.200000
20
0.200000
0
VERTEX
8
0
10
-0.400000
20
0.200000
0
SEQEND
8
0
0
TEXT
8
0
10
-2.210000
20
0.160000
40
0.080000
41
1.000000
1
PB6/TOSC1/XTAL1/PCINT6
0
TEXT
8
0
10
-0.300000
20
0.210000
40
0.080000
41
1.000000
1
9
0
POLYLINE
8
0
66
1
40
0.016000
41
0.016000
0
VERTEX
8
0
10
-0.200000
20
-0.700000
0
VERTEX
8
0
10
-0.400000
20
-0.700000
0
SEQEND
8
0
0
TEXT
8
0
10
-1.810000
20
-0.740000
40
0.080000
41
1.000000
1
PC6/RESET/PCINT14
0
TEXT
8
0
10
-0.300000
20
-0.690000
40
0.080000
41
1.000000
1
1
0
POLYLINE
8
0
66
1
40
0.016000
41
0.016000
0
VERTEX
8
0
10
-0.200000
20
-0.600000
0
VERTEX
8
0
10
-0.400000
20
-0.600000
0
SEQEND
8
0
0
TEXT
8
0
10
-2.050000
20
-0.640000
40
0.080000
41
1.000000
1
PC5/ADC5/SCL/PCINT13
0
TEXT
8
0
10
-0.300000
20
-0.590000
40
0.080000
41
1.000000
1
28
0
POLYLINE
8
0
66
1
40
0.016000
41
0.016000
0
VERTEX
8
0
10
-0.200000
20
-0.500000
0
VERTEX
8
0
10
-0.400000
20
-0.500000
0
SEQEND
8
0
0
TEXT
8
0
10
-2.050000
20
-0.540000
40
0.080000
41
1.000000
1
PC4/ADC4/SDA/PCINT12
0
TEXT
8
0
10
-0.300000
20
-0.490000
40
0.080000
41
1.000000
1
27
0
POLYLINE
8
0
66
1
40
0.016000
41
0.016000
0
VERTEX
8
0
10
-0.200000
20
-0.400000
0
VERTEX
8
0
10
-0.400000
20
-0.400000
0
SEQEND
8
0
0
TEXT
8
0
10
-1.730000
20
-0.440000
40
0.080000
41
1.000000
1
PC3/ADC3/PCINT11
0
TEXT
8
0
10
-0.300000
20
-0.390000
40
0.080000
41
1.000000
1
26
0
POLYLINE
8
0
66
1
40
0.016000
41
0.016000
0
VERTEX
8
0
10
-0.200000
20
-0.300000
0
VERTEX
8
0
10
-0.400000
20
-0.300000
0
SEQEND
8
0
0
TEXT
8
0
10
-1.730000
20
-0.340000
40
0.080000
41
1.000000
1
PC2/ADC2/PCINT10
0
TEXT
8
0
10
-0.300000
20
-0.290000
40
0.080000
41
1.000000
1
25
0
POLYLINE
8
0
66
1
40
0.016000
41
0.016000
0
VERTEX
8
0
10
-0.200000
20
-0.200000
0
VERTEX
8
0
10
-0.400000
20
-0.200000
0
SEQEND
8
0
0
TEXT
8
0
10
-1.650000
20
-0.240000
40
0.080000
41
1.000000
1
PC1/ADC1/PCINT9
0
TEXT
8
0
10
-0.300000
20
-0.190000
40
0.080000
41
1.000000
1
24
0
POLYLINE
8
0
66
1
40
0.016000
41
0.016000
0
VERTEX
8
0
10
-0.200000
20
-0.100000
0
VERTEX
8
0
10
-0.400000
20
-0.100000
0
SEQEND
8
0
0
TEXT
8
0
10
-1.650000
20
-0.140000
40
0.080000
41
1.000000
1
PC0/ADC0/PCINT8
0
TEXT
8
0
10
-0.300000
20
-0.090000
40
0.080000
41
1.000000
1
23
0
POLYLINE
8
0
66
1
40
0.016000
41
0.016000
0
VERTEX
8
0
10
-2.800000
20
-0.200000
0
VERTEX
8
0
10
-2.600000
20
-0.200000
0
SEQEND
8
0
0
TEXT
8
0
10
-2.550000
20
-0.240000
40
0.080000
41
1.000000
1
AVCC
0
TEXT
8
0
10
-2.860000
20
-0.190000
40
0.080000
41
1.000000
1
20
0
POLYLINE
8
0
66
1
40
0.016000
41
0.016000
0
VERTEX
8
0
10
-2.800000
20
-0.100000
0
VERTEX
8
0
10
-2.600000
20
-0.100000
0
SEQEND
8
0
0
TEXT
8
0
10
-2.550000
20
-0.140000
40
0.080000
41
1.000000
1
AREF
0
TEXT
8
0
10
-2.860000
20
-0.090000
40
0.080000
41
1.000000
1
21
0
POLYLINE
8
0
66
1
40
0.016000
41
0.016000
0
VERTEX
8
0
10
-2.800000
20
0.100000
0
VERTEX
8
0
10
-2.600000
20
0.100000
0
SEQEND
8
0
0
TEXT
8
0
10
-2.550000
20
0.060000
40
0.080000
41
1.000000
1
PD7/AIN1/PCINT23
0
TEXT
8
0
10
-2.860000
20
0.110000
40
0.080000
41
1.000000
1
13
0
TEXT
8
0
10
-2.608000
20
0.923000
40
0.120000
41
0.666667
1
U1
0
TEXT
8
0
10
-2.608000
20
-0.898000
40
0.080000
41
1.000000
1
ATMEGA88P
0
CIRCLE
8
16384
10
-2.700000
20
2.800000
40
0.020000
0
CIRCLE
8
16384
10
-3.100000
20
2.500000
40
0.020000
0
CIRCLE
8
16384
10
-3.500000
20
2.200000
40
0.020000
0
CIRCLE
8
16384
10
-3.900000
20
1.900000
40
0.020000
0
ENDSEC
0
EOF

